<svg xmlns="http://www.w3.org/2000/svg" viewBox="0 0 120 30">
  <path fill="currentColor" d="M17.66 21.32q0 .16-.02.24-.08.03-.12.08-.05.06-.16.04-.03.24-.16.39-.12.16-.25.29-.14.13-.26.28-.13.15-.16.38-.23.13-.46.34-.22.21-.4.29-.12.06-.26.1l-.28.1-.93.42q-.48.22-1 .22h-.1q-.07.07-.16.09l-.19.04q-.09.01-.19.05-.09.03-.14.09-.17-.06-.37-.06h-.11q-.27.06-.5.09-.24.03-.5.03-.47 0-.94-.06l-.94-.11q-.29-.23-.48-.59-.19-.35-.19-.74 0-.3.13-.55.12-.26.33-.46h.04q.14 0 .29-.07.15-.06.29-.06.16 0 .26.13.1.12.15.29.06.17.07.35l.02.29q.17.08.37.1l.4.01.45-.02q.25-.02.51-.08.25-.05.5-.13.24-.08.41-.2.86-.08 1.52-.4.65-.31 1.39-.73.03-.17.13-.27t.1-.31l-.01-.07v-.07q-.32-.39-.65-.69-.34-.29-.87-.39-.06-.14-.2-.21l-.3-.13-.3-.13q-.14-.07-.2-.25-.42-.07-.87-.19-.44-.12-.75-.43-.25-.02-.48-.1l-.45-.17q-.22-.09-.45-.16t-.48-.07q-.07-.11-.18-.17l-.24-.11-.25-.1q-.12-.06-.18-.17-.06.02-.09.07-.03.04-.11.04h-.06q-.03-.09-.13-.13-.09-.04-.11-.16-.28-.02-.51-.11l-.42-.21-.4-.23q-.2-.11-.45-.17-.16-.13-.29-.28-.13-.15-.33-.15-.05 0-.18.04-.03-.29-.23-.4-.2-.12-.44-.21-.15-.41-.42-.72t-.58-.58q.03-.09.03-.14 0-.16-.07-.27-.08-.12-.18-.2-.22-.7-.22-1.37 0-.94.42-1.75.41-.8 1.3-1.21.02-.12.09-.22.07-.09.09-.22.14 0 .21-.06l.15-.13.15-.13q.08-.07.2-.08.6-.52 1.27-.84l1.37-.66q.15-.06.24-.24h.09q.16 0 .25-.07.08-.07.25-.04.07-.09.17-.12l.2-.05.2-.08q.09-.04.12-.14h.11q.27 0 .52-.08l.5-.2h.1q.32 0 .59-.11.27-.12.59-.17.12-.03.25-.01l.25.01.18-.01q.11-.02.16-.1h.03q.1 0 .11.06.02.07.09.07.11 0 .22-.03.11-.04.22-.04.47 0 .93.1l.92.17q.03.19.16.27l.29.14v.06q0 .12.06.2-.06.22-.22.33-.15.11-.34.19.08.06.09.17l.02.2v.19l-.08-.02q-.25 0-.25.24-.2-.13-.44-.16-.25-.03-.48-.03-.31 0-.66.03-.34.02-.67-.01-.12.15-.31.22t-.38.07q-.2 0-.39-.08-.19-.09-.26-.26-.08-.03-.14-.03h-.14q-.25 0-.5.05l-.49.13-.49.14q-.24.07-.49.09-.1.12-.25.17-.16.04-.25.17-.33.06-.6.21-.26.15-.51.32l-.49.33q-.23.15-.53.26-.22.24-.4.38-.19.14-.49.25-.19.06-.21.19-.02.12-.13.25-.1.11-.23.16-.13.06-.23.18-.07.11-.11.26l-.09.29-.11.27q-.06.13-.19.23v.12l-.01.11q0 .22.05.45.06.22.07.44.32.55.74.99.42.45.9.82.49.38 1.01.71l1.04.64q.19-.02.34.04.16.05.33.07.19.14.44.22l.5.15q.25.08.48.18.24.1.4.28l.14.04q.06.02.14.02.09 0 .11-.06.7.26 1.37.58.67.32 1.42.49.3.25.66.44l.72.38q.36.2.69.43.32.22.57.54.03.29.14.57.1.27.1.58Zm10.73-9.36v.06q-.11.04-.11.16-.17.08-.36.12-.18.04-.36.12l-.35-.03-.35-.01q-.47 0-.94.04-.47.03-.93 0-.22.12-.48.19t-.49.07q-.19 0-.33-.05-.38.19-.82.32l-.9.24q-.45.12-.87.26-.41.15-.72.42-.04.22-.05.43l-.02.41q0 .22.03.41.02.19.1.37l.18.05.18.02q.08 0 .15-.03.08-.02.11-.1.24-.03.47-.02l.47.01q.24 0 .46-.02.23-.02.45-.08.25-.06.49-.08l.48-.03q.23-.01.48-.05.25-.04.52-.17.2.08.41.08.21 0 .41.03.11.08.18.17.07.1.07.22 0 .22-.15.44-.16.22-.25.41h-.17q-.38 0-.73.1t-.7.23q-.36.14-.71.24-.35.1-.72.1-.07 0-.07.07-.01.07-.04.1l-.24-.01q-.36 0-.68.07-.33.08-.68.08l-.18-.01q-.1 0-.19-.02-.08.13-.2.16-.13.04-.24.14-.05.14-.05.34l-.02.42q-.01.21-.04.39-.03.19-.12.3.01.08.12.06.11-.03.11.1 0 .14-.03.29-.03.16-.03.32 0 .29.07.64.07.36.22.65.15.3.4.5.25.19.62.19.25 0 .47-.09.22-.1.36-.32l.08-.01.11.01.12.02q.1 0 .24-.12l.33-.27.37-.31q.19-.14.36-.21l.21-.43q.1-.22.3-.35v-.45q.16-.17.34-.31.18-.14.27-.36l.15.04q.07.02.15.02l.16-.02q.09-.01.17-.04.12.17.19.38t.18.4l-.32.67q-.19.39-.41.78-.22.39-.46.74-.24.36-.48.54-.05.05-.2.11l-.31.24q-.14.12-.27.28-.45.14-.87.37l-.82.46q-.18-.05-.4-.05l-.38.02q-.19.03-.4.03-.07-.08-.18-.11-.12-.02-.09-.16-.53-.03-.86-.29-.33-.26-.55-.63-.23-.38-.37-.81-.14-.44-.3-.85v-.04q0-.08.06-.1.07-.01.07-.09 0-.03-.02-.05l-.08-.3q-.03-.12-.03-.29 0-.25.03-.49.03-.25.03-.5t-.06-.43q.06-.08.1-.22.04-.13.06-.27l.02-.28q.01-.14.04-.25l-.11-.3q-.05-.14-.05-.33v-.1q.16-.27.27-.55l.23-.58v-.05q0-.45-.03-.9-.03-.46-.03-.91v-.3q0-.15.02-.29.12-.07.18-.17.07-.11.19-.18h.52l.09-.15q.05-.08.06-.17.18-.05.34-.14.16-.08.3-.18l.4-.22q.18-.11.36-.18.18-.07.39-.11.2-.05.46-.08.13 0 .17-.05l.12-.11.37.06.38.02q.37 0 .7-.14.47 0 .93-.02l.93-.01q.4 0 .81.03.41.03.8.11.14-.05.31-.05.19 0 .38.04.2.04.39.01.01.17.08.29.07.12.07.27Zm19.24 7.22q-.04.24-.17.36-.13.13-.3.23l-.15-.02-.15-.01q-.48-.01-.91.13-.43.14-.89.2-.15.03-.29.03-.13-.01-.27.02-.5.08-1.06.12l-1.13.12q-.56.07-1.1.17t-1.01.29l-.09-.07q-.05-.04-.11-.04-.16 0-.3.05-.14.05-.28.03-.15.09-.33.13l-.36.07q-.18.02-.35.07-.18.04-.33.17-.13-.06-.31-.07-.18-.01-.24-.12-.36.17-.76.22-.4.05-.8.03-.27-.02-.61-.08-.34-.06-.69-.18-.34-.11-.64-.28-.3-.16-.45-.4-.11-.15-.16-.34-.05-.19-.22-.28l.11-.71.13-.7q.31-.26.59-.56.28-.3.53-.63.3-.14.56-.34l.51-.41.52-.42q.26-.2.55-.36.05-.11.14-.18l.18-.14.17-.15q.08-.09.11-.21.54-.33.95-.83.41-.5.53-1.13-.26-.22-.6-.29-.34-.07-.7-.1h-.64q-.34.02-.68-.01-.35.11-.71.14l-.73.05q-.36.02-.71.1-.35.07-.68.25l-.12-.01q-.05-.02-.12-.02-.5-.01-.93.2l-.86.41-.03.09q0 .1.03.18.04.09.04.18l-.01.04-.02.03-.04.14-.05.14q-.17.5-.19.98v.8q.02.39 0 .8-.03.5-.16.93l.15.79q.06.42.15.82.1.41.23.79.13.38.35.73-.02.03.02.05l.06.01h.12q.08 0 .07.06l.04.09q.02.04.06.07.04.05 0 .12-.01.32-.15.58-.14.27-.17.58-.19.05-.35.05-.26-.02-.47-.15-.2-.13-.37-.32l-.33-.38q-.16-.2-.34-.34-.11-.44-.21-.97-.11-.53-.34-.9.06-.15.06-.35.02-.31-.05-.62-.07-.3-.04-.61 0-.17.04-.35.04-.17.05-.34.02-.27-.05-.52t-.06-.51q.02-.13.06-.24.04-.12.12-.21-.08-.19-.05-.36.01-.27.06-.5.05-.24.06-.47l-.01-.24-.05-.23-.14-.05q-.09 0-.18.05t-.15.11l-.11.1q-.04.04-.09.04l-.07-.01-.07-.01q-.03 0-.12.07l-.2.13-.23.14q-.11.07-.17.08-.17-.03-.27-.11l-.19-.17-.18-.16q-.09-.07-.24-.06-.04-.09-.05-.2-.01-.11.01-.22v-.25q.11-.2.29-.33.18-.14.38-.23l.41-.19q.2-.09.37-.23h.14q.28.01.49-.11.21-.13.4-.29l.39-.34q.19-.17.42-.26.18.08.36.13.19.06.39.07.21 0 .43-.06t.34-.24q.08.04.13.04l.14.01q.23.02.46-.07.24-.08.46-.21.31.02.62-.04l.6-.12.61-.11q.31-.06.62-.04.52.01 1.02-.1t1.01-.07q.36.01.71.05t.71.02l.37.17q.17.07.42.04.5.42.9.98v.27q-.01.36-.12.7-.11.34-.26.68-.15.34-.32.66l-.33.63-2.03 1.83q-1.02.9-2.09 1.75l-.09.28q-.06.12-.07.26l.01.13q.11.03.2.12.09.08.05.22h.15q.07 0 .07.07l.25.01q.6.03 1.19-.03l1.2-.14 1.19-.15q.6-.07 1.19-.09l.3-.07q.15-.03.28-.13h.04q.11 0 .17.06.05.07.16.08.08 0 .17-.03l.18-.05q.21-.06.46-.07l.47-.05q.91-.08 1.8-.1.89-.03 1.78-.23.08.11.22.15l.3.08.29.08q.13.05.18.19Zm5.45-7.22v.06q-.11.04-.11.16-.17.08-.36.12-.19.04-.36.12l-.35-.03-.35-.01q-.47 0-.94.04-.47.03-.94 0-.22.12-.47.19-.26.07-.5.07-.18 0-.32-.05-.38.19-.82.32l-.9.24q-.46.12-.87.26-.41.15-.73.42l-.04.43-.02.41q0 .22.02.41.03.19.11.37.07.03.18.05l.17.02q.08 0 .16-.03.08-.02.11-.1.23-.03.47-.02l.47.01.46-.02q.23-.02.44-.08.25-.06.5-.08l.47-.03q.24-.01.49-.05t.51-.17q.21.08.42.08t.41.03q.11.08.18.17.07.1.07.22 0 .22-.16.44-.15.22-.25.41h-.17q-.37 0-.72.1-.36.1-.71.23-.35.14-.7.24-.35.1-.73.1-.06 0-.07.07 0 .07-.04.1l-.23-.01q-.36 0-.69.07-.33.08-.67.08l-.19-.01-.18-.02q-.08.13-.21.16-.12.04-.23.14-.05.14-.06.34l-.01.42q-.01.21-.04.39-.03.19-.13.3.02.08.13.06.11-.03.11.1 0 .14-.03.29-.03.16-.03.32 0 .29.07.64.07.36.21.65.15.3.4.5.25.19.63.19.25 0 .47-.09.22-.1.36-.32l.07-.01.12.01.12.02q.09 0 .24-.12l.33-.27.37-.31q.18-.14.36-.21l.21-.43q.1-.22.3-.35v-.45q.16-.17.34-.31.18-.14.27-.36l.15.04q.07.02.15.02l.16-.02q.09-.01.17-.04.12.17.19.38t.18.4l-.33.67-.4.78q-.22.39-.46.74-.25.36-.48.54-.05.05-.2.11l-.32.24q-.14.12-.26.28-.46.14-.87.37l-.82.46q-.19-.05-.41-.05l-.37.02q-.19.03-.41.03-.06-.08-.18-.11-.11-.02-.08-.16-.53-.03-.86-.29-.33-.26-.56-.63-.22-.38-.36-.81l-.3-.85v-.04q0-.08.06-.1.06-.01.06-.09l-.01-.05-.08-.3q-.03-.12-.03-.29 0-.25.03-.49.03-.25.03-.5t-.06-.43q.06-.08.1-.22.04-.13.05-.27l.03-.28q.01-.14.04-.25l-.11-.3q-.05-.14-.05-.33v-.1q.16-.27.27-.55l.23-.58v-.05q0-.45-.03-.9-.03-.46-.03-.91v-.3l.01-.29q.13-.07.19-.17.06-.11.19-.18h.51l.1-.15q.05-.08.06-.17.17-.05.34-.14.16-.08.3-.18l.4-.22q.18-.11.36-.18.18-.07.38-.11.21-.05.47-.08.13 0 .17-.05l.11-.11.38.06q.18.02.37.02.38 0 .71-.14l.93-.02.92-.01q.41 0 .82.03.4.03.79.11.14-.05.32-.05t.38.04q.19.04.38.01.02.17.09.29.07.12.07.27Zm9.53-.33q-.03.19-.09.32-.05.14-.02.36-.16.01-.24.1-.09.08-.14.19l-.11.23q-.06.12-.13.21.12.56.14 1.14.01.58.07 1.14.08.72.25 1.42.16.69.16 1.41l-.01.41-.01.39.01.25.01.26q0 .46-.12.91-.11.45-.18.9-.18.18-.32.38-.13.2-.27.37-.14.18-.33.31t-.47.18q-.04.16-.18.23-.13.08-.22.22h-.03q-.4 0-.68-.11t-.52-.25l-.49-.29q-.25-.16-.58-.25-.44-.36-.8-.79-.36-.43-.81-.78-.11-.31-.29-.51-.18-.21-.35-.47-.08-.11-.12-.2l-.1-.22q-.05-.13-.15-.17l-.18-.11q-.12-.49-.36-.89-.23-.41-.54-.79-.1.18-.15.37l-.1.39q-.05.2-.12.39-.07.2-.18.35v.05q0 .08.06.09.06.02.06.1v.03l-.01.03q-.08.06-.12.16-.04.09-.16.11l.01.15v.14q0 .46-.1.91t-.1.92v.2q0 .11.02.21.03.09.09.19.06.09.06.17 0 .11-.09.2l.25.17q.14.1.26.21.11.12.19.25.08.14.08.29 0 .27-.17.38-.17.11-.42.17l-.5.12q-.25.05-.43.19h-.04q-.19 0-.28-.11-.1-.11-.29-.11-.29-.48-.4-1.08-.11-.6-.11-1.15 0-.67.12-1.35.11-.67.28-1.32.16-.66.36-1.31l.36-1.3.02-.05q0-.08-.04-.11t-.04-.09q0-.03.02-.03.04-.16.1-.3.05-.14.08-.31.1-.44.14-.9.04-.46.04-.92l.04-.91q.02-.46.1-.91l.23-.27q.11-.14.28-.25.32.02.63.09.31.08.59.25.19.68.26 1.35t.24 1.34v.05q0 .08.09.07.08-.01.13.05-.03.05-.04.11l-.01.13v.26l.08.27q.05.14.2.17.08.5.24.92.16.42.36.82.2.39.44.77l.48.8q.39.3.67.68.28.39.57.74.29.35.66.61.37.27.96.33.08-.06.11-.17l.08-.22q.04-.11.1-.19.05-.09.16-.14l.07-.89q.04-.45.2-.86-.08-.14-.08-.34 0-.16.02-.3.03-.14.03-.28 0-.29-.13-.48l.02-.23q.01-.12.09-.23-.12-.31-.19-.65-.07-.35-.07-.7 0-.21.04-.43-.09-.23-.12-.54l-.06-.64q-.04-.33-.1-.61-.06-.28-.23-.46.09-.14.09-.32 0-.32-.09-.6-.1-.28-.1-.59 0-.22.1-.44.34.02.68.07.33.06.66.06.09.12.22.2.12.08.27.15l.27.15q.13.07.21.21Zm12.06 2.57q0 .15-.11.2-.11.05-.11.19 0 .04.03.08.04.03.04.09v.06q-.19.91-.54 1.58-.35.67-.82 1.23-.47.57-1.06 1.07-.58.5-1.26 1.04l-.38.32q-.19.15-.37.32l-.34.33q-.02.02-.17.07l-.19.07-.46.22q-.24.13-.41.31-.32 0-.54.1-.21.09-.48.25-.08 0-.13-.03l-.12-.07q-.06-.03-.13-.03-.07-.01-.18.02-.19-.31-.41-.53-.22-.22-.59-.27-.05-.26-.22-.41l-.34-.32q-.04-.1-.05-.22-.02-.13-.06-.24-.05-.11-.13-.18-.08-.08-.22-.08-.01-.1.08-.1t.09-.07q0-.1-.03-.19t-.03-.2q0-.08.02-.14l.04-.15q-.04-.42-.04-.85 0-.85.11-1.67.12-.82.12-1.66 0-.38-.04-.75-.04-.38-.15-.74-.36.08-.71.18-.36.1-.68.28-.17-.11-.36-.14-.2-.02-.39-.08-.11-.22-.11-.46 0-.21.08-.42l.16-.4q.37-.08.74-.24l.74-.28.32-.08q.2-.04.28-.08.11-.04.14-.18.04-.13.12-.22h.27l.2.01q.11 0 .2.05.57-.14 1.13-.18.56-.04 1.16-.12l.18-.01.27-.05.26-.05.16-.03q.05 0 .05.05h.26q.67 0 1.32.17l1.28.35.53.42q.26.2.59.36.08.25.24.4l.37.32q.08.2.21.43l.26.46.22.46q.09.22.09.43Zm-1.45.23q-.17-.36-.33-.75t-.39-.7q-.28-.08-.57-.2-.29-.11-.4-.41l-.11.01q-.14 0-.25-.11-.11-.1-.25-.14l-.33-.04-.45-.05-.46-.03-.35-.02-.26.01-.27.02q-.13 0-.16.04t-.12.07q-.08-.03-.18-.03h-.18q-.33 0-.65.1-.32.11-.63.28v.06q0 .13.1.14.11.02.13.13h-.13q-.04.01-.04.12 0 .16.04.34.04.19.04.38 0 .14-.04.33-.03.19-.15.29.15.15.15.38 0 .16-.06.33t-.15.29q-.04.66-.13 1.33t-.09 1.33q0 .33.04.64t.13.63q.17.17.37.26.19.1.41.19v.05q0 .04-.06.09-.06.05-.06.13 0 .06.06.06.65-.19 1.23-.46.58-.26 1.08-.71.05-.05.09-.05l.09.01.1.04-.01-.07q0-.09.05-.17.06-.08.13-.14l.16-.14q.08-.08.12-.16.13-.03.18-.12.06-.09.2-.09.03-.18.17-.26.14-.09.17-.26.32-.17.56-.42.24-.25.45-.53.21-.28.4-.59l.39-.59v-.06q0-.25.09-.4.08-.16.13-.38Zm5.51 5.33q-.07.12-.18.23l-.21.21q-.11.04-.24.04h-.47q-.1 0-.16.07-.13-.04-.19-.12-.06-.09-.22-.1-.06-.02-.12 0-.24-.27-.43-.57l-.37-.56q-.02-.58-.09-1.17l-.05-.28-.05-.27q0-.15.03-.3l.04-.27q.06-.46.14-.9l.14-.89q.06-.4.06-.85 0-.44-.14-.83l-.02-.08q.03-.13.07-.21.04-.09.06-.2.03-.17-.08-.25.05-.12.16-.16.11-.04.12-.18.02-.06 0-.13l.26-.08q.13-.04.26-.01.2.03.36.13.15.1.29.23.25.75.21 1.59-.05.83-.16 1.67-.11.85-.14 1.65-.03.81.25 1.5l.03.01q.08.02.13-.05.04-.07.12-.06l.08.03q.06.32.2.6.14.28.31.56Zm13.69-6.55-.01.44-.05.44-.21.27q-.1.12-.13.29-.18.12-.39.34-.21.22-.18.44h-.22q-.18.28-.43.49-.25.2-.53.39l-.55.36q-.27.17-.5.4-.13.02-.2.05-.08.03-.21.01-.48.32-1.01.55l-1.04.46q-.53.23-1.04.48-.52.25-.99.58-.04-.02-.12-.02-.14 0-.28.04t-.28.04l-.17-.02q-.1-.01-.15-.04-.07-.05-.14-.14-.06-.1-.09-.21l-.05-.23-.01-.19.01-.2.05-.21q.45-.03.91-.23l.89-.39q.11-.05.18-.12l.14-.12q.08-.06.18-.1.09-.05.23-.05h.05q.98-.45 1.93-.99l1.88-1.07q.05-.14.15-.28l.19-.28q.1-.13.18-.27.07-.14.07-.28 0-.28-.26-.47h-.06q-.19 0-.33-.06l-.27-.11q-.12-.05-.28-.09-.16-.04-.36-.02-.08-.07-.25-.11-.17-.05-.28-.05-.56 0-1.11.07t-1.09.09l-.27.14q-.12.06-.3.06l-.14-.01-.14-.02q-.29.12-.67.21l-.74.2q-.37.12-.68.29-.31.17-.48.47 0 .08.03.13.03.06.03.14v.06q-.1.09-.13.21l-.04.23-.04.24q-.03.12-.12.23.06.23.06.51 0 .31-.04.63-.04.31-.04.62 0 .3.07.53-.1.1-.08.28.01.19-.08.28 0 .13.07.18.07.04.09.15-.07.27-.07.58 0 .45.11.92.1.47.24.92l.54-.13q.29-.05.55-.05l.1.01h.09q.03.17.12.32.1.14.18.31l-.14.18q-.05.07-.05.19-.22.02-.36.12l-.31.23h-.07q-.26 0-.43.1l-.39.22q-.19-.07-.38-.07-.2 0-.41.07-.25-.1-.4-.33-.16-.23-.27-.5-.11-.27-.19-.56-.09-.28-.2-.51v-.25q0-.36-.05-.7-.06-.33-.06-.69 0-.14.03-.3.02-.16.08-.3-.03-.14-.03-.26v-.3q0-.47.04-.94.04-.46.04-.93 0-.35-.05-.71l-.14.07q-.06.03-.14.03-.08 0-.15-.02l-.13-.03q-.16-.14-.22-.34-.06-.21-.17-.38 0-.3.08-.49.09-.2.22-.36l.25-.32q.14-.16.23-.39h.06q.25 0 .5-.16.25-.17.57-.17.1-.14.29-.24.19-.1.4-.17.21-.06.42-.08l.4-.02q.06-.11.19-.15l.26-.08.25-.08q.11-.04.19-.15.13.03.24.03.2 0 .39-.05l.37-.13.38-.13q.2-.06.42-.06l.15.01h.16q.13 0 .15-.09.02-.09.1-.14.05.02.17.02.32 0 .61-.06.3-.05.61-.05l.28.01q.14.02.28.08l.07-.08q.03-.03.04-.08.77.05 1.45.32.68.26 1.41.46.1.15.22.25l.27.22.26.22q.13.11.22.27Zm3.89 6.55q-.08.12-.19.23-.11.1-.2.21-.11.04-.24.04h-.47q-.1 0-.16.07-.13-.04-.19-.12-.06-.09-.22-.1-.06-.02-.13 0-.23-.27-.43-.57l-.36-.56q-.02-.58-.1-1.17l-.04-.28-.05-.27.02-.3.04-.27.14-.9q.08-.43.14-.89.07-.4.07-.85 0-.44-.14-.83l-.02-.08q.03-.13.07-.21.04-.09.06-.2.03-.17-.08-.25.04-.12.15-.16.11-.04.13-.18v-.13l.26-.08q.13-.04.25-.01.21.03.36.13.16.1.3.23.25.75.2 1.59-.04.83-.15 1.67-.11.85-.14 1.65-.03.81.25 1.5l.03.01q.08.02.12-.05.05-.07.13-.06l.08.03q.06.32.2.6.14.28.31.56Zm14.94-7.91q-.06.21-.2.38l-.27.33q-.13.15-.21.33-.09.18-.06.42l-.07-.01-.08-.01q-.25 0-.38.12-.14.11-.36.19l-.07-.18q-.05-.08-.15-.11-.37.07-.75.11l-.75.1-.34.09q-.17.06-.36.1-.09.03-.2.03h-.22l-.81.06q-.44.04-.78.24l-.33-.05-.35-.01q-.37 0-.82.07-.44.07-.79.27l-.16-.05-.19-.01-.05.01h-.05q-.01.15.04.28.06.13.2.21-.07.17-.07.37 0 .27.04.54.04.26.04.53 0 .29-.08.47.16.46.16 1l-.02.36q-.03.18-.03.39 0 .17.13.27.12.1.12.27 0 .06-.03.13.22-.05.42-.14.21-.08.43-.08.12 0 .24.05.11.04.21.12-.02.08-.02.17l-.01.19.01.32.02.32q-.13.22-.29.39-.16.17-.23.44-.23 0-.41.1-.18.1-.34.22-.15.12-.31.22t-.34.1q-.24 0-.33-.07-.1-.07-.14-.15l-.09-.14q-.04-.06-.16-.05-.03-.2-.13-.38l-.19-.35-.21-.35q-.1-.18-.14-.37-.1-.41-.08-.84.01-.44-.14-.85l.04-.44.02-.45q0-.44-.02-.87-.03-.43-.04-.88-.11-.14-.14-.32l-.03-.35-.11-.09q-.05-.05-.07-.13l-.18-.03q-.22 0-.37.1t-.27.1q-.13 0-.24-.03-.11-.03-.22-.03-.09 0-.1.04-.01.04-.07.07-.05.03-.22.06l-.38.06-.41.04-.26.01q-.25 0-.38-.1l-.32-.23.03-.12q0-.16-.09-.26t-.09-.18q0-.17.13-.26.13-.1.15-.3.36-.16.73-.24.38-.07.77-.12l.77-.11q.38-.06.76-.2l.21.02.21.01q.47 0 .93-.1.46-.11.94-.11.13 0 .25.02l.25.05 1.25-.21q.61-.11 1.27-.18l.62-.06q.3-.02.61-.07.11-.01.17-.05.05-.04.05-.17.14.07.32.07.26 0 .51-.1.25-.09.52-.09l.11.01h.09q.11 0 .12-.1.01-.1.15-.13.11-.03.31-.05l.43-.04q.22-.02.42-.06.2-.04.29-.12l.11-.17q.28.02.41.24.14.23.15.5.06.06.18.05l.21-.01Zm6.08-.7q0 .14-.12.23-.12.1-.12.14 0 .1.03.14.04.04.04.08v.08q-.16.16-.24.34-.08.18-.12.37l-.09.4q-.04.2-.1.39-.08.19-.2.32-.13.13-.21.31-.12.28-.19.57-.06.3-.26.55v.08q-.02.11.06.19-.3.39-.47.93-.17.54-.28 1.12-.11.59-.19 1.17-.07.59-.18 1.06.07.34.24.65l.32.63q.31.08.6.22t.41.45q-.03.31-.2.49-.17.17-.42.36l-.28-.11q-.11-.04-.33 0-.3-.24-.55-.38-.26-.14-.47-.48-.03-.05-.09-.05h-.14l-.19-.4-.22-.44q-.11-.22-.18-.45-.08-.23-.08-.41 0-.8.15-1.59t.15-1.6v-.16q-.32.08-.62.22-.31.14-.62.22-.11.03-.12.11-.02.08-.1.12l-.29.03-.27.01q-.27 0-.56-.03-.28-.02-.57-.1-.28-.08-.52-.22t-.43-.36l-.08.03q-.04.02-.09.02-.05 0-.09-.02l-.08-.03q-.13-.17-.21-.37l-.15-.41-.17-.39q-.1-.19-.25-.34-.05-.28-.05-.55 0-.28.04-.55.04-.26.12-.53-.07-.19-.09-.39l-.02-.4q0-.24.04-.49.05-.25.16-.46.11-.21.3-.35.2-.14.48-.14.31 0 .58.16l.51.34q.04.19.05.37.02.17.02.38 0 .37-.04.76-.04.38-.04.77 0 .41.1.76.1.35.37.66h.06q.13-.01.22.05.09.06.22.06.11 0 .17-.09.06-.08.16-.08.09 0 .14.03.04.03.07.03.18 0 .4-.12.21-.13.28-.29.06.05.15.05.13 0 .24-.08.11-.07.28-.07.09 0 .07-.12-.02-.12.05-.15.19-.08.42-.23.22-.15.36-.18.08-.2.2-.38l.24-.34q.05-.35.19-.68l.3-.66.29-.66q.14-.32.19-.68.17-.17.27-.38.11-.2.18-.4.16-.05.39-.06l.41-.01h.27q.04.1.12.18l.16.15q-.14.22-.14.44 0 .17.08.34.07.16.17.3Z"/>
</svg>
