<svg viewBox="0 0 1200 630" xmlns="http://www.w3.org/2000/svg" xmlns:bx="https://boxy-svg.com">
  <defs>
    <bx:grid x="0" y="0" width="120" height="63"></bx:grid>
    <style bx:fonts="Roboto Slab">@import url(https://fonts.googleapis.com/css2?family=Roboto+Slab%3Aital%2Cwght%400%2C100%3B0%2C200%3B0%2C300%3B0%2C400%3B0%2C500%3B0%2C600%3B0%2C700%3B0%2C800%3B0%2C900&amp;display=swap);</style>
    <style bx:fonts="Roboto Condensed">@import url(https://fonts.googleapis.com/css2?family=Roboto+Condensed%3Aital%2Cwght%400%2C300%3B0%2C400%3B0%2C700%3B1%2C300%3B1%2C400%3B1%2C700&amp;display=swap);</style>
    <mask id="mask">
      <rect width="100%" height="100%" fill="white"></rect>
      <path d="M -120 -90 H -60 V -59.9 A 29.9 29.9 0 0 1 -89.9 -30 H -90.1 A 29.9 29.9 0 0 1 -120 -59.9 V -90 Z" transform="matrix(-1, 0, 0, -1, 0, 0)" bx:origin="0.5 0.522"></path>
      <path d="M -240 -90 H -180 V -60 A 30 30 0 0 1 -210 -30 H -210 A 30 30 0 0 1 -240 -60 V -90 Z" transform="matrix(-1, 0, 0, -1, 0, 0)" bx:origin="0.5 0.522"></path>
      <path d="M -360 -90 H -300 V -60 A 30 30 0 0 1 -330 -30 H -330 A 30 30 0 0 1 -360 -60 V -90 Z" transform="matrix(-1, 0, 0, -1, 0, 0)" bx:origin="0.5 0.522"></path>
      <path d="M -480 -90 H -420 V -60 A 30 30 0 0 1 -450 -30 H -450 A 30 30 0 0 1 -480 -60 V -90 Z" transform="matrix(-1, 0, 0, -1, 0, 0)" bx:origin="0.5 0.522"></path>
      <path d="M -600 -90 H -540 V -60 A 30 30 0 0 1 -570 -30 H -570 A 30 30 0 0 1 -600 -60 V -90 Z" transform="matrix(-1, 0, 0, -1, 0, 0)" bx:origin="0.5 0.522"></path>
      <path d="M -720 -90 H -660 V -60 A 30 30 0 0 1 -690 -30 H -690 A 30 30 0 0 1 -720 -60 V -90 Z" transform="matrix(-1, 0, 0, -1, 0, 0)" bx:origin="0.5 0.522"></path>
      <path d="M -840 -90 H -780 V -60 A 30 30 0 0 1 -810 -30 H -810 A 30 30 0 0 1 -840 -60 V -90 Z" transform="matrix(-1, 0, 0, -1, 0, 0)" bx:origin="0.5 0.522"></path>
      <path d="M -960 -90 H -900 V -60 A 30 30 0 0 1 -930 -30 H -930 A 30 30 0 0 1 -960 -60 V -90 Z" transform="matrix(-1, 0, 0, -1, 0, 0)" bx:origin="0.5 0.522"></path>
      <path d="M -1080 -90 H -1020 V -60 A 30 30 0 0 1 -1050 -30 H -1050 A 30 30 0 0 1 -1080 -60 V -90 Z" transform="matrix(-1, 0, 0, -1, 0, 0)" bx:origin="0.5 0.522"></path>
      <path d="M -1200 -90 H -1140 V -60 A 30 30 0 0 1 -1170 -30 H -1170 A 30 30 0 0 1 -1200 -60 V -90 Z" transform="matrix(-1, 0, 0, -1, 0, 0)" bx:origin="0.5 0.522"></path>
    </mask>
  </defs>
  <g transform="matrix(1, 0, 0, 0.9, 0, 0)" fill="#ea868f">
    <rect width="1200" height="63" mask="url('#mask')"></rect>
    <g>
      <path d="M 0 62.43 H 60 V 158.28 A 30 31.58 0 0 1 30 189.86 H 30 A 30 31.58 0 0 1 0 158.28 V 62.43 Z"></path>
      <path d="M 120 62.43 H 180 V 107.79 A 30 31.5 0 0 1 150 139.29 H 150 A 30 31.5 0 0 1 120 107.79 V 62.43 Z"></path>
      <path d="M 240 62.43 H 300 V 165.92 A 30 31.5 0 0 1 270 197.42 H 270 A 30 31.5 0 0 1 240 165.92 V 62.43 Z"></path>
      <path d="M 360 62.43 H 420 V 180.32 A 30 31.5 0 0 1 390 211.82 H 390 A 30 31.5 0 0 1 360 180.32 V 62.43 Z"></path>
      <path d="M 480 62.43 H 540 V 146.78 A 30 31.5 0 0 1 510 178.28 H 510 A 30 31.5 0 0 1 480 146.78 V 62.43 Z"></path>
      <path d="M 600 62.43 H 660 V 97.3 A 30 31.5 0 0 1 630 128.8 H 630 A 30 31.5 0 0 1 600 97.3 V 62.43 Z"></path>
      <path d="M 720 62.43 H 780 V 180.32 A 30 31.5 0 0 1 750 211.82 H 750 A 30 31.5 0 0 1 720 180.32 V 62.43 Z"></path>
      <path d="M 840 62.43 H 900 V 165.92 A 30 31.5 0 0 1 870 197.42 H 870 A 30 31.5 0 0 1 840 165.92 V 62.43 Z"></path>
      <path d="M 960 62.43 H 1020 V 134.58 A 30 31.5 0 0 1 990 166.08 H 990 A 30 31.5 0 0 1 960 134.58 V 62.43 Z"></path>
      <path d="M 1080 62.43 H 1140 V 180.32 A 30 31.5 0 0 1 1110 211.82 H 1110 A 30 31.5 0 0 1 1080 180.32 V 62.43 Z"></path>
    </g>
    <g>
      <rect y="246.73" width="60" height="80.27" rx="31.58" ry="31.58"></rect>
      <rect x="960" y="200.66" width="60" height="80.27" rx="31.58" ry="31.58"></rect>
      <rect x="600" y="164.41" width="60" height="116.52" rx="31.58" ry="31.58"></rect>
    </g>
  </g>
  <rect fill="#ffc107" x="360" y="441.2" width="777.6" height="75.77" rx="37.9" ry="37.9" style=""></rect>
  <path d="M 208.37 252.13 C 208.32 252.19 206.04 252.4 203.28 252.56 C 200.58 252.72 197.83 252.98 197.19 253.14 C 196.61 253.25 195.12 253.51 193.96 253.62 C 184.1 254.94 169.95 259.18 159.14 264.06 C 155.85 265.6 152.94 266.97 152.62 267.19 C 152.35 267.45 150.45 268.51 148.43 269.57 C 146.42 270.63 144.51 271.74 144.19 272.01 C 143.87 272.27 141.97 273.6 139.9 274.98 C 129.46 281.81 117.64 292.94 109.32 303.75 C 95.49 321.77 85.74 344.83 83.19 365.5 C 83.03 366.93 82.66 369.58 82.45 371.33 C 81.87 375.62 81.87 393.21 82.45 397.82 C 82.93 401.85 83.99 408.85 84.31 410.54 C 85.47 416.69 89.55 430.1 91.78 435.19 C 100.68 455.27 111.55 470.43 127.07 484.32 C 133.06 489.67 145.99 498.47 153.15 502.07 C 154.05 502.55 155.69 503.4 156.86 503.98 C 163.91 507.58 179.12 512.78 185.74 513.89 C 186.75 514.05 188.45 514.42 189.45 514.68 C 190.46 514.95 192.37 515.27 193.69 515.43 C 195.02 515.58 196.61 515.85 197.19 515.96 C 197.83 516.11 200.79 516.38 203.81 516.59 C 215.37 517.39 226.02 516.91 236.09 515.16 C 237.68 514.9 239.75 514.52 240.59 514.42 C 241.5 514.26 244.46 513.52 247.22 512.83 C 300.91 499.16 340.65 452.84 346.17 397.56 C 346.91 389.82 346.64 375.67 345.53 365.76 C 345.21 362.79 342.99 352.83 341.61 347.9 C 328.15 301.1 289.3 264.85 242.13 255.05 C 239.16 254.47 235.82 253.83 234.71 253.67 C 233.55 253.51 232.17 253.3 231.59 253.14 C 228.72 252.56 208.9 251.66 208.37 252.13 Z M 225.23 267.4 C 227.82 267.61 230.1 267.87 230.26 267.98 C 230.42 268.09 231.8 268.3 233.28 268.51 C 234.82 268.67 236.78 269.04 237.68 269.31 C 238.58 269.57 239.43 269.78 239.53 269.78 C 240.33 269.73 243.83 270.63 248.54 272.06 C 263.86 276.73 275.78 283.14 290.15 294.59 C 292.8 296.71 301.65 305.61 304.51 309.05 C 307.16 312.23 314 321.61 314 322.04 C 314 322.2 314.63 323.31 315.43 324.58 C 319.98 331.79 326.4 346.89 328.04 354.31 C 328.15 354.95 328.52 356.38 328.78 357.55 C 329.37 359.98 329.79 362.05 330.21 364.7 C 330.37 365.71 330.58 366.82 330.69 367.19 C 331.64 370.16 332.07 388.97 331.33 396.66 C 330.64 403.44 328.36 414.47 326.45 420.08 C 322.79 430.74 319.98 436.99 315.11 444.94 C 310.87 451.93 306.95 457.34 302.55 462.22 L 298.68 466.56 C 298.2 467.09 297.62 467.52 297.3 467.52 C 296.45 467.52 287.13 454.21 284.95 449.87 C 283.1 446.16 283.05 445.89 283.1 440.49 C 283.2 431.85 285.64 424.75 293.17 411.07 C 297.51 403.18 301.91 394.38 303.66 389.87 C 309.28 375.62 310.66 362.74 308.43 345.62 C 307.58 339.1 303.66 325.59 301.59 322.14 C 297.88 315.78 291.15 312.18 288.35 315.04 C 287.97 315.41 286.81 317 285.75 318.65 C 281.99 324.32 277.59 327.55 263.12 335.29 C 247.8 343.45 240.44 349.01 235.82 356.01 C 232.75 360.62 230.53 366.87 230.1 371.91 C 229.94 373.71 229.78 373.71 224.43 371.8 C 221.3 370.69 219.34 370.37 215.31 370.27 C 202.44 369.95 190.25 374.45 161.89 389.98 C 142.07 400.9 134.33 403.5 126.39 402.12 C 120.34 401.06 117 402.17 115.2 405.88 C 113.08 410.23 114.51 415.74 119.07 421.14 C 127.71 431.32 138.95 440.12 149.97 445.26 C 156.28 448.17 166.24 451.35 172.23 452.36 C 182.46 454.11 188.39 454.64 200.85 455.06 C 205.25 455.22 210.81 455.49 213.3 455.59 C 217.43 455.86 218.87 456.02 223.64 456.7 C 229.31 457.55 234.61 460.41 237.47 464.18 C 240.97 468.73 243.67 481.98 243.77 494.54 L 243.77 498.47 L 240.86 499.16 C 224.96 502.87 206.84 503.08 190.78 499.74 C 155.9 492.58 126.54 470.48 110.01 438.79 C 108.26 435.51 106.3 431.48 105.66 429.89 C 104.29 426.28 101.05 417.01 100.68 415.42 C 99.09 408.37 98.24 404.34 97.98 402.33 C 97.82 401 97.5 398.51 97.24 396.76 C 96.81 393.53 96.92 372.7 97.4 370.8 C 97.5 370.21 97.82 368.41 98.03 366.82 C 100.26 349.44 108.74 329.25 120.24 313.93 C 135.55 293.63 158.24 278 182.03 271.37 C 186.06 270.26 192.58 268.83 195.28 268.46 C 196.29 268.35 197.72 268.09 198.46 267.98 C 199.2 267.82 201.96 267.56 204.56 267.4 C 207.21 267.19 209.38 267.03 209.43 266.97 C 209.7 266.76 220.93 267.08 225.23 267.4 Z" style="fill: rgb(33, 37, 41);"></path>
  <text style="fill: rgb(33, 37, 41); font-family: &quot;Roboto Slab&quot;; font-size: 142px; font-weight: 600; white-space: pre;" x="394" y="400">Ioana Orca</text>
  <text style="fill: rgb(33, 37, 41); font-family: &quot;Roboto Condensed&quot;; font-size: 40px; white-space: pre;" x="382" y="493.31">Creative crafting, coding, cooking &amp; counseling</text>
  <text style="fill: rgb(173, 181, 189); font-family: &quot;Roboto Slab&quot;; font-size: 30px; white-space: pre;" x="82.52" y="604.16">www.ioanaorca.com</text>
  <ellipse fill="#4dd4ac" cx="43.76" cy="593.26" rx="27.26" ry="27.26"></ellipse>
</svg>
