<svg xmlns="http://www.w3.org/2000/svg" viewBox="0 0 400 400">
  <path fill="#2c2c2c" fill-rule="evenodd" d="M182.22.27c-2.63.1-4.5.34-4.67.6-.17.28-1.43.42-3.31.37-1.91-.05-3.04.07-3.04.34 0 .25-1.05.42-2.6.42-1.47 0-2.6.17-2.6.4 0 .22-.99.4-2.2.4-1.21 0-2.2.18-2.2.4 0 .22-.88.4-1.97.4-1.19 0-2.03.2-2.13.49-.1.29-.75.44-1.6.39-.8-.06-1.55.08-1.7.3-.13.23-.96.42-1.82.42-.87 0-1.58.18-1.58.4 0 .22-.62.4-1.38.4-.75 0-1.48.18-1.62.4-.14.22-.87.4-1.62.4-.76 0-1.38.18-1.38.4 0 .22-.53.4-1.18.4-.64 0-1.28.18-1.42.4-.14.22-.77.4-1.4.4-.63 0-1.26.18-1.4.4-.14.22-.68.4-1.2.4-.52 0-1.06.18-1.2.4-.14.22-.68.4-1.2.4-.52 0-1.06.18-1.2.4-.14.22-.69.4-1.22.4-.54 0-.98.18-.98.4 0 .22-.43.4-.96.4-.52 0-1.05.25-1.17.55-.13.35-.58.48-1.24.35-.6-.11-1.03-.01-1.03.25 0 .25-.45.45-1 .45s-1 .18-1 .4c0 .22-.45.4-1 .4s-1 .18-1 .4c0 .22-.45.4-1 .4s-1 .18-1 .4c0 .22-.35.4-.78.4-.42 0-.88.18-1.02.4-.14.22-.6.4-1.02.4-.43 0-.78.18-.78.4 0 .22-.36.4-.8.4-.44 0-.8.18-.8.4 0 .22-.35.4-.78.4-.42 0-.88.18-1.02.4-.14.22-.6.4-1.02.4-.43 0-.78.18-.78.4 0 .22-.36.4-.8.4-.44 0-.8.18-.8.4 0 .22-.36.4-.8.4-.44 0-.8.18-.8.4 0 .22-.36.4-.8.4-.44 0-.8.18-.8.4 0 .22-.34.4-.77.4-.42 0-.82.14-.9.3-.16.38-2.3 1.68-3.23 1.97-.39.12-.7.38-.7.58 0 .2-.36.35-.8.35-.44 0-.8.18-.8.4 0 .22-.32.4-.71.4-.4 0-.97.36-1.29.8-.32.44-.9.8-1.29.8s-.71.18-.71.4c0 .22-.32.4-.71.4-.4 0-.97.36-1.29.8-.32.44-.9.8-1.29.8s-.71.18-.71.4c0 .22-.24.4-.53.4-.28 0-.9.36-1.38.8-.47.44-1.1.8-1.39.8-.29 0-.78.36-1.1.8-.32.44-.78.8-1.03.8s-1.02.54-1.7 1.2c-.7.66-1.5 1.2-1.78 1.2s-.77.36-1.09.8c-.32.44-.83.8-1.13.8-.3 0-1.05.54-1.67 1.2-.62.66-1.33 1.2-1.6 1.2-.25 0-1.15.72-2 1.6-.85.88-1.73 1.6-1.97 1.6-.23 0-1.34.9-2.47 2-1.12 1.1-2.21 2-2.42 2-.2 0-1.8 1.44-3.54 3.2-1.74 1.76-3.34 3.2-3.55 3.2-.51 0-8.05 7.45-8.05 7.95 0 .22-1.62 2.03-3.6 4.03-1.98 2-3.6 3.8-3.6 4.02 0 .22-.9 1.31-2 2.44-1.1 1.12-2 2.22-2 2.44 0 .22-.54.9-1.2 1.52-.66.62-1.2 1.3-1.2 1.5 0 .21-.54.95-1.2 1.64-.66.69-1.2 1.45-1.2 1.7 0 .24-.54.94-1.2 1.56-.66.62-1.2 1.37-1.2 1.67 0 .3-.36.81-.8 1.13-.44.32-.8.86-.8 1.2 0 .34-.36.88-.8 1.2-.44.32-.8.86-.8 1.2 0 .34-.36.88-.8 1.2-.44.32-.8.86-.8 1.2 0 .34-.36.88-.8 1.2-.44.32-.8.9-.8 1.29s-.18.71-.4.71c-.22 0-.4.24-.4.53 0 .28-.36.9-.8 1.38-.44.47-.8 1.13-.8 1.47 0 .34-.18.62-.4.62-.22 0-.4.32-.4.71 0 .4-.36.97-.8 1.29-.44.32-.8.9-.8 1.29s-.18.71-.4.71c-.22 0-.4.34-.4.77 0 .42-.14.82-.3.9-.17.07-1.11 1.75-2.1 3.73s-1.93 3.66-2.1 3.73c-.16.08-.3.37-.3.66 0 .3-.54 1.55-1.2 2.81a12.3 12.3 0 00-1.2 2.84c0 .3-.18.56-.4.56-.22 0-.4.45-.4 1s-.18 1-.4 1c-.22 0-.4.27-.4.6 0 .34-.16.92-.35 1.3-.2.39-.58 1.24-.85 1.9-.27.66-.65 1.51-.85 1.9-.2.38-.35 1.05-.35 1.5 0 .44-.18.8-.4.8-.22 0-.4.35-.4.78 0 .42-.18.88-.4 1.02-.22.14-.4.68-.4 1.2 0 .52-.18 1.06-.4 1.2-.22.14-.4.69-.4 1.22 0 .54-.18.98-.4.98-.22 0-.4.54-.4 1.2 0 .66-.18 1.2-.4 1.2-.22 0-.4.53-.4 1.18 0 .64-.18 1.28-.4 1.42-.22.14-.4.77-.4 1.4 0 .63-.18 1.26-.4 1.4-.22.14-.4.78-.4 1.42 0 .65-.18 1.18-.4 1.18-.22 0-.4.72-.4 1.6 0 .88-.18 1.6-.4 1.6-.22 0-.4.72-.4 1.6 0 .88-.18 1.6-.4 1.6-.22 0-.4.72-.4 1.6 0 .88-.18 1.6-.4 1.6-.22 0-.4.8-.4 1.78 0 .97-.18 1.88-.4 2.02-.22.14-.4 1.14-.4 2.22 0 1.1-.18 1.98-.4 1.98-.22 0-.4.98-.4 2.18 0 1.2-.18 2.28-.4 2.42-.22.14-.4 1.4-.4 2.8s-.18 2.66-.4 2.8c-.22.14-.4 1.73-.4 3.54 0 2-.19 3.49-.47 3.77-.68.68-.68 37.9 0 38.58.28.28.47 1.77.47 3.77 0 1.8.18 3.4.4 3.54.22.14.4 1.4.4 2.82 0 1.46.17 2.58.4 2.58.22 0 .4 1.07.4 2.4 0 1.33.18 2.4.4 2.4.22 0 .4.9.4 2s.18 2 .4 2c.22 0 .4.8.4 1.78 0 .97.18 1.88.4 2.02.22.14.4.96.4 1.82 0 .87.18 1.58.4 1.58.22 0 .4.72.4 1.6 0 .88.17 1.6.38 1.6.2 0 .43.68.5 1.5.06.83.3 1.47.54 1.43.24-.04.35.49.25 1.3-.1.83.02 1.37.29 1.37.24 0 .44.62.44 1.38 0 .75.18 1.48.4 1.62.22.14.4.68.4 1.2 0 .52.18 1.06.4 1.2.22.14.4.68.4 1.2 0 .52.18 1.06.4 1.2.22.14.4.68.4 1.2 0 .52.18 1.06.4 1.2.22.14.4.69.4 1.22 0 .54.18.98.4.98.22 0 .4.45.4 1s.18 1 .4 1c.22 0 .4.44.4.98 0 .53.18 1.08.4 1.22.22.14.4.6.4 1.02 0 .43.18.78.4.78.22 0 .4.44.4.98 0 .53.18 1.08.4 1.22.22.14.4.6.4 1.02 0 .43.18.78.4.78.22 0 .4.36.4.8 0 .44.18.8.4.8.22 0 .4.45.4 1s.18 1 .4 1c.22 0 .4.22.4.5 0 .64 5.68 12.06 6.1 12.23.16.08.3.48.3.9 0 .43.18.77.4.77.22 0 .4.27.4.6 0 .33.18.6.4.6.22 0 .4.36.4.8 0 .44.18.8.4.8.22 0 .4.27.4.6 0 .33.18.6.4.6.22 0 .4.32.4.71 0 .4.36.97.8 1.29.44.32.8.9.8 1.29s.18.71.4.71c.22 0 .4.24.4.53 0 .28.36.9.8 1.38.44.47.8 1.1.8 1.38 0 .3.36.8.8 1.11.44.32.8.86.8 1.2 0 .34.36.88.8 1.2.44.32.8.86.8 1.2 0 .34.36.88.8 1.2.44.32.8.78.8 1.03s.54 1.02 1.2 1.7c.66.7 1.2 1.45 1.2 1.69 0 .53 1.83 2.38 2.37 2.38.22 0 .3.27.18.6-.14.36.4 1.2 1.41 2.16.9.87 1.64 1.78 1.64 2.04 0 .25.9 1.33 2 2.4 1.1 1.07 2 2.13 2 2.36 0 .32 5.36 6.05 10.08 10.76 4.36 4.37 10.43 10.08 10.7 10.08.18 0 1.26.9 2.38 2 1.13 1.1 2.2 2 2.4 2 .19 0 1.09.72 2 1.6.9.88 1.84 1.6 2.08 1.6s.94.54 1.56 1.2c.62.66 1.34 1.2 1.6 1.2s.98.54 1.6 1.2c.62.66 1.37 1.2 1.67 1.2.3 0 .81.36 1.13.8.32.44.86.8 1.2.8.34 0 .88.36 1.2.8.32.44.86.8 1.2.8.34 0 .88.36 1.2.8.32.44.86.8 1.2.8.34 0 .88.36 1.2.8.32.44.81.8 1.1.8.3 0 .92.36 1.4.8.46.44 1.09.8 1.38.8.28 0 .52.18.52.4 0 .22.36.4.8.4.44 0 .8.18.8.4 0 .22.24.4.53.4.28 0 .9.36 1.38.8.47.44 1.13.8 1.47.8.34 0 .62.18.62.4 0 .22.36.4.8.4.44 0 .8.13.8.3 0 .17 1 .75 2.2 1.3 1.2.55 2.2 1.13 2.2 1.3 0 .17.36.3.8.3.44 0 .8.18.8.4 0 .22.36.4.8.4.44 0 .8.18.8.4 0 .22.36.4.8.4.44 0 .8.18.8.4 0 .22.36.4.8.4.44 0 .8.18.8.4 0 .22.25.4.56.4.49 0 1.76.55 4.73 2.05.39.2.97.35 1.3.35.34 0 .61.18.61.4 0 .22.35.4.78.4.42 0 .88.18 1.02.4.14.22.69.4 1.22.4.54 0 .98.18.98.4 0 .22.45.4 1 .4s1 .18 1 .4c0 .22.45.4 1 .4s1 .18 1 .4c0 .22.54.4 1.2.4.66 0 1.2.18 1.2.4 0 .22.54.4 1.2.4.66 0 1.2.18 1.2.4 0 .22.54.4 1.2.4.66 0 1.2.18 1.2.4 0 .22.54.4 1.2.4.66 0 1.2.18 1.2.4 0 .22.54.4 1.2.4.66 0 1.2.18 1.2.4 0 .22.63.4 1.4.4.77 0 1.4.18 1.4.4 0 .22.62.4 1.38.4.75 0 1.48.18 1.62.4.14.22.87.4 1.62.4.76 0 1.38.18 1.38.4 0 .22.7.4 1.58.4.86 0 1.7.2 1.84.43.14.23 1 .37 1.9.3 1.01-.07 1.68.07 1.78.38.1.3.94.49 2.13.49 1.08 0 1.97.18 1.97.4 0 .22.89.4 1.98.4 1.08 0 2.08.18 2.22.4.14.22 1.4.4 2.82.4 1.46 0 2.58.18 2.58.4 0 .23 1.3.4 3.12.4 1.89 0 3.3.19 3.6.48.8.8 37.71.72 38.7-.08.42-.34.6-.39.43-.1-.22.38.25.5 1.9.5 1.21 0 2.31-.18 2.45-.4.14-.22 1.58-.4 3.2-.4s3.06-.18 3.2-.4c.14-.22 1.32-.4 2.62-.4 1.32 0 2.38-.18 2.38-.4 0-.22 1.07-.4 2.4-.4 1.33 0 2.4-.18 2.4-.4 0-.22.9-.4 2-.4s2-.18 2-.4c0-.22.81-.4 1.8-.4s1.8-.18 1.8-.4c0-.22.7-.4 1.58-.4.86 0 1.68-.18 1.82-.4.14-.22.87-.4 1.62-.4.76 0 1.38-.18 1.38-.4 0-.22.63-.4 1.4-.4.77 0 1.4-.18 1.4-.4 0-.22.62-.4 1.38-.4.75 0 1.48-.18 1.62-.4.14-.22.78-.4 1.42-.4.65 0 1.18-.18 1.18-.4 0-.22.54-.4 1.2-.4.66 0 1.2-.18 1.2-.4 0-.22.54-.4 1.2-.4.66 0 1.2-.18 1.2-.4 0-.22.44-.4.98-.4.53 0 1.08-.18 1.22-.4.14-.22.68-.4 1.2-.4.52 0 1.06-.18 1.2-.4.14-.22.6-.4 1.02-.4.43 0 .78-.18.78-.4 0-.22.54-.4 1.2-.4.66 0 1.2-.18 1.2-.4 0-.22.27-.4.6-.4.34 0 .97-.18 1.4-.4l1.6-.8c.43-.22 1.06-.4 1.4-.4.33 0 .6-.18.6-.4 0-.22.35-.4.78-.4.42 0 .88-.18 1.02-.4.14-.22.6-.4 1.02-.4.43 0 .78-.18.78-.4 0-.22.22-.4.5-.4.64 0 12.05-5.68 12.23-6.1.08-.16.48-.3.9-.3.42 0 .77-.18.77-.4 0-.22.27-.4.6-.4.33 0 .6-.18.6-.4 0-.22.27-.4.6-.4.33 0 .6-.25.6-.56 0-.37.28-.5.8-.36.45.12.8.02.8-.23s.24-.45.52-.45c.3 0 .92-.36 1.39-.8.47-.44 1.1-.8 1.38-.8.3 0 .8-.36 1.11-.8.32-.44.9-.8 1.29-.8s.71-.18.71-.4c0-.22.24-.4.53-.4.28 0 .9-.36 1.38-.8.47-.44 1.05-.8 1.28-.8.23 0 .98-.54 1.67-1.2.7-.66 1.46-1.2 1.71-1.2s.71-.36 1.03-.8c.32-.44.8-.8 1.1-.8.27 0 1.07-.54 1.76-1.2.7-.66 1.43-1.2 1.64-1.2.2 0 .88-.54 1.5-1.2.62-.66 1.33-1.2 1.6-1.2.25 0 1.15-.72 2-1.6.85-.88 1.74-1.6 1.98-1.6.75 0 4.08-3.58 3.78-4.07-.17-.27-.1-.34.16-.18.94.58 19.28-16.9 19.28-18.37 0-.32.18-.58.4-.58.22 0 .4-.3.4-.67 0-.36.11-.55.25-.41.28.27 3.75-3.23 3.75-3.78 0-.19.72-1.08 1.6-1.99.88-.9 1.6-1.82 1.6-2.04 0-.21.54-.9 1.2-1.51.66-.62 1.2-1.32 1.2-1.56 0-.25.54-1.01 1.2-1.7.66-.7 1.2-1.46 1.2-1.71s.36-.71.8-1.03c.44-.32.8-.86.8-1.2 0-.34.36-.88.8-1.2.44-.32.8-.86.8-1.2 0-.34.36-.88.8-1.2.44-.32.8-.86.8-1.2 0-.34.36-.88.8-1.2.9-.65 1.04-1.44.3-1.74-.27-.1-.1-.21.4-.23.5-.02.9-.27.9-.55 0-.3.38-.93.83-1.43.46-.49.74-1.15.62-1.47-.13-.34.01-.58.36-.58.33 0 .59-.24.59-.52 0-.3.31-.88.7-1.3.39-.43 1.15-1.68 1.7-2.78a9.08 9.08 0 011.3-2.13c.17-.08.3-.48.3-.9 0-.43.15-.77.32-.77.18 0 .58-.63.88-1.4.3-.77.7-1.4.88-1.4.17 0 .32-.36.32-.8 0-.44.18-.8.4-.8.22 0 .4-.35.4-.78 0-.42.18-.88.4-1.02.22-.14.4-.6.4-1.02 0-.43.18-.78.4-.78.22 0 .4-.36.4-.8 0-.44.18-.8.4-.8.22 0 .4-.25.4-.56 0-.49.55-1.76 2.05-4.74.2-.38.35-.96.35-1.3 0-.33.18-.6.4-.6.22 0 .4-.45.4-1s.18-1 .4-1c.22 0 .4-.45.4-1s.18-1 .4-1c.22 0 .4-.36.4-.8 0-.45.18-1.17.4-1.6l.8-1.6c.22-.43.4-1.14.4-1.57 0-.43.18-.9.4-1.03.22-.14.4-.69.4-1.22 0-.54.18-.98.4-.98.22 0 .4-.54.4-1.2 0-.66.18-1.2.4-1.2.22 0 .4-.53.4-1.18 0-.64.18-1.28.4-1.42.22-.14.4-.87.4-1.62 0-.76.18-1.38.4-1.38.22 0 .4-.53.4-1.18 0-.64.18-1.28.4-1.42.22-.14.4-.87.4-1.62 0-.76.18-1.38.4-1.38.22 0 .4-.72.4-1.6 0-.88.18-1.6.4-1.6.22 0 .4-.81.4-1.8s.18-1.8.4-1.8c.22 0 .4-.8.4-1.78 0-.97.18-1.88.4-2.02.22-.14.4-1.13.4-2.2 0-1.07.18-2.06.4-2.2.22-.14.4-1.22.4-2.4s.18-2.26.4-2.4c.22-.14.4-1.48.4-2.99 0-1.78.17-2.8.48-2.9.82-.28.72-49.51-.1-49.51-.2 0-.38-1.34-.38-2.98 0-1.63-.18-3.08-.4-3.22-.22-.14-.4-1.22-.4-2.4s-.18-2.26-.4-2.4c-.22-.14-.4-1.14-.4-2.22 0-1.1-.18-1.98-.4-1.98-.22 0-.4-.8-.4-1.78 0-.97-.18-1.88-.4-2.02-.22-.14-.4-.96-.4-1.82 0-.87-.18-1.58-.4-1.58-.22 0-.4-.72-.4-1.6 0-.88-.18-1.6-.4-1.6-.22 0-.4-.72-.4-1.6 0-.88-.18-1.6-.4-1.6-.22 0-.4-.53-.4-1.18 0-.64-.18-1.28-.4-1.42-.22-.14-.4-.77-.4-1.4 0-.63-.18-1.26-.4-1.4-.22-.14-.4-.78-.4-1.42 0-.65-.18-1.18-.4-1.18-.22 0-.4-.54-.4-1.2 0-.66-.18-1.2-.4-1.2-.22 0-.4-.52-.4-1.16 0-.63-.26-1.25-.57-1.37-.33-.13-.48-.54-.36-1 .1-.43 0-.9-.24-1.05-.23-.15-.43-.7-.43-1.24s-.18-.98-.4-.98c-.22 0-.4-.45-.4-1s-.18-1-.4-1c-.22 0-.4-.44-.4-.98 0-.53-.18-1.08-.4-1.22-.22-.14-.4-.6-.4-1.02 0-.43-.18-.78-.4-.78-.22 0-.4-.45-.4-1s-.18-1-.4-1c-.22 0-.4-.35-.4-.78 0-.42-.18-.88-.4-1.02-.22-.14-.4-.6-.4-1.02 0-.43-.18-.78-.4-.78-.22 0-.4-.36-.4-.8 0-.44-.18-.8-.4-.8-.22 0-.4-.45-.4-1s-.18-1-.4-1c-.22 0-.4-.36-.4-.8 0-.44-.18-.8-.4-.8-.22 0-.4-.36-.4-.8 0-.44-.18-.8-.4-.8-.22 0-.4-.36-.4-.8 0-.44-.18-.8-.4-.8-.22 0-.4-.36-.4-.8 0-.44-.18-.8-.4-.8-.22 0-.4-.36-.4-.8 0-.44-.18-.8-.4-.8-.22 0-.4-.24-.4-.53 0-.28-.36-.9-.8-1.38-.44-.47-.8-1.13-.8-1.47 0-.34-.18-.62-.4-.62-.22 0-.4-.36-.4-.8 0-.44-.18-.8-.4-.8-.22 0-.4-.32-.4-.71 0-.4-.36-.97-.8-1.29-.44-.32-.8-.9-.8-1.29s-.18-.71-.4-.71c-.22 0-.4-.32-.4-.71 0-.4-.36-.97-.8-1.29-.44-.32-.8-.86-.8-1.2 0-.34-.36-.88-.8-1.2-.44-.32-.8-.9-.8-1.29s-.15-.71-.33-.71c-.19 0-.59-.5-.9-1.1a7.5 7.5 0 00-1.27-1.75c-.38-.35-.7-.9-.7-1.2 0-.32-.36-.83-.8-1.15-.44-.32-.8-.83-.8-1.13 0-.3-.54-1.05-1.2-1.67-.66-.62-1.2-1.34-1.2-1.6s-.54-.98-1.2-1.6c-.66-.62-1.2-1.33-1.2-1.6 0-.25-.72-1.15-1.6-2-.88-.85-1.6-1.74-1.6-2 0-.25-.9-1.33-2-2.4-1.1-1.07-2-2.14-2-2.38 0-.56-19.49-20.02-20.04-20.02-.23 0-1.29-.9-2.36-2-1.07-1.1-2.15-2-2.4-2-.26 0-1.15-.72-2-1.6-.85-.88-1.75-1.6-2-1.6-.27 0-.98-.54-1.6-1.2-.62-.66-1.34-1.2-1.6-1.2s-.98-.54-1.6-1.2c-.62-.66-1.37-1.2-1.67-1.2-.3 0-.81-.36-1.13-.8-.32-.44-.86-.8-1.2-.8-.34 0-.88-.36-1.2-.8-.32-.44-.86-.8-1.2-.8-.34 0-.88-.36-1.2-.8-.32-.44-.86-.8-1.2-.8-.34 0-.88-.36-1.2-.8-.32-.44-.9-.8-1.29-.8s-.71-.18-.71-.4c0-.22-.24-.4-.52-.4-.3 0-.92-.36-1.39-.8-.47-.44-1.13-.8-1.47-.8-.34 0-.62-.18-.62-.4 0-.22-.58-.41-1.3-.43-.71-.02-1.08-.12-.8-.23.75-.3-.06-.93-3.3-2.54-1.54-.77-2.86-1.53-2.93-1.7-.08-.16-.48-.3-.9-.3-.42 0-.77-.18-.77-.4 0-.22-.36-.4-.8-.4-.44 0-.8-.18-.8-.4 0-.22-.36-.4-.8-.4-.44 0-.8-.18-.8-.4 0-.22-.36-.4-.8-.4-.44 0-.8-.18-.8-.4 0-.22-.36-.4-.8-.4-.44 0-.8-.18-.8-.4 0-.22-.27-.4-.59-.4-.32 0-1.23-.36-2.01-.8a6.32 6.32 0 00-2.01-.8c-.32 0-.59-.18-.59-.4 0-.22-.45-.4-1-.4s-1-.18-1-.4c0-.22-.35-.4-.78-.4-.42 0-.88-.18-1.02-.4-.14-.22-.69-.4-1.22-.4-.54 0-.98-.18-.98-.4 0-.22-.35-.4-.78-.4-.42 0-.88-.18-1.02-.4-.14-.22-.69-.4-1.22-.4-.54 0-.98-.18-.98-.4 0-.22-.54-.4-1.2-.4-.66 0-1.2-.18-1.2-.4 0-.22-.44-.4-.98-.4-.53 0-1.08-.18-1.22-.4-.14-.22-.69-.4-1.22-.4-.54 0-.98-.18-.98-.4 0-.22-.53-.4-1.18-.4-.64 0-1.28-.18-1.42-.4-.14-.22-.78-.4-1.42-.4-.65 0-1.18-.2-1.18-.44 0-.27-.54-.38-1.37-.29-.81.1-1.34 0-1.3-.25.04-.23-.6-.48-1.43-.54-.83-.07-1.5-.3-1.5-.5 0-.21-.72-.38-1.6-.38-.9 0-1.6-.2-1.6-.44 0-.28-.6-.39-1.6-.3-1.11.11-1.6 0-1.6-.35 0-.33-.56-.51-1.58-.51-.86 0-1.68-.18-1.82-.4-.14-.22-1.04-.4-2-.4s-1.86-.18-2-.4c-.14-.22-1.23-.4-2.42-.4-1.2 0-2.18-.18-2.18-.4 0-.22-1.06-.4-2.38-.4-1.3 0-2.48-.18-2.62-.4-.14-.22-1.55-.4-3.14-.4-1.62 0-3.1-.2-3.35-.45-.46-.46-31.2-.82-40.7-.48m29.97 23.76c.2.2 2.23.37 4.5.37 2.48 0 4.12.16 4.12.4 0 .23 1.2.4 2.78.4 1.52 0 2.88.18 3.02.4.14.22 1.22.4 2.4.4s2.26.18 2.4.4c.14.22 1.13.4 2.2.4 1.07 0 2.06.18 2.2.4.14.22.96.4 1.82.4.87 0 1.58.18 1.58.4 0 .22.7.4 1.58.4.86 0 1.68.18 1.82.4.14.22.87.4 1.62.4.76 0 1.38.18 1.38.4 0 .22.72.4 1.6.4.88 0 1.6.18 1.6.4 0 .22.54.4 1.2.4.66 0 1.2.18 1.2.4 0 .22.53.4 1.18.4.64 0 1.28.18 1.42.4.14.22.68.4 1.2.4.52 0 1.06.18 1.2.4.14.22.69.4 1.22.4.54 0 .98.18.98.4 0 .22.54.4 1.2.4.66 0 1.2.18 1.2.4 0 .22.54.4 1.2.4.66 0 1.2.18 1.2.4 0 .22.36.4.8.4.44 0 .8.2.8.45 0 .26.48.37 1.2.27.82-.13 1.2-.01 1.2.35 0 .3.36.53.8.53.44 0 .8.15.8.33 0 .18.9.57 2 .87 1.1.3 2 .7 2 .87 0 .18.36.33.8.33.44 0 .8.18.8.4 0 .22.36.4.8.4.44 0 .8.18.8.4 0 .22.36.4.8.4.44 0 .8.18.8.4 0 .22.36.4.8.4.44 0 .8.18.8.4 0 .22.36.4.8.4.44 0 .8.18.8.4 0 .22.36.4.8.4.44 0 .8.18.8.4 0 .22.36.4.8.4.44 0 .8.18.8.4 0 .22.36.4.8.4.44 0 .8.16.8.35 0 .2.54.58 1.2.85.66.27 1.2.66 1.2.85 0 .2.36.35.8.35.44 0 .8.18.8.4 0 .22.32.4.71.4.4 0 .97.36 1.29.8.32.44.9.8 1.29.8s.71.16.71.35c0 .2.54.58 1.2.85.66.27 1.2.65 1.2.85 0 .2.23.35.5.35s1.02.45 1.66 1c.64.55 1.29 1 1.44 1 .15 0 .8.45 1.44 1 .64.55 1.34 1 1.57 1 .23 0 .67.36.99.8.32.44.76.8.99.8.23.01 1.1.64 1.95 1.4.85.77 1.66 1.4 1.8 1.4.15 0 .89.6 1.66 1.3a47.8 47.8 0 002.8 2.38c.77.59 2.3 1.89 3.4 2.88 1.1 1 2.11 1.82 2.25 1.83.33.01 11.51 11.38 13 13.21.63.77 1.9 2.21 2.82 3.2.92.99 2.2 2.52 2.84 3.4.63.88 1.46 1.85 1.82 2.15.37.3.67.72.67.92 0 .2.54.95 1.2 1.65.66.7 1.2 1.42 1.2 1.6 0 .18.54.9 1.2 1.6.66.7 1.2 1.47 1.2 1.7 0 .22.36.66.8.98.44.32.8.86.8 1.2 0 .34.36.88.8 1.2.44.32.8.86.8 1.2 0 .34.36.88.8 1.2.44.32.8.9.8 1.29s.16.71.35.71c.2 0 .58.54.85 1.2.27.66.66 1.2.85 1.2.2 0 .35.36.35.8 0 .44.18.8.4.8.22 0 .4.24.4.52 0 .3.36.92.8 1.39.44.47.8 1.13.8 1.47 0 .34.18.62.4.62.22 0 .4.36.4.8 0 .44.18.8.4.8.22 0 .4.36.4.8 0 .44.18.8.4.8.22 0 .4.34.4.77 0 .42.14.82.3.9.42.19 2.9 5.13 2.9 5.79 0 .3.18.54.4.54.22 0 .4.36.4.8 0 .44.18.8.4.8.22 0 .4.36.4.8 0 .44.15.8.33.8.18 0 .57.9.87 2 .3 1.1.7 2 .87 2 .18 0 .33.36.33.8 0 .44.18.8.4.8.22 0 .4.54.4 1.2 0 .66.18 1.2.4 1.2.22 0 .4.35.4.78 0 .42.18.88.4 1.02.22.14.4.69.4 1.22 0 .54.18.98.4.98.22 0 .4.54.4 1.2 0 .66.18 1.2.4 1.2.22 0 .4.54.4 1.2 0 .66.18 1.2.4 1.2.22 0 .4.54.4 1.2 0 .66.18 1.2.4 1.2.22 0 .4.62.4 1.38 0 .75.18 1.48.4 1.62.22.14.4.78.4 1.42 0 .65.18 1.18.4 1.18.22 0 .4.72.4 1.6 0 .88.18 1.6.4 1.6.22 0 .4.72.4 1.6 0 .88.18 1.6.4 1.6.22 0 .4.7.4 1.58 0 .86.18 1.68.4 1.82.22.14.4 1.04.4 2s.18 1.86.4 2c.22.14.4 1.23.4 2.42 0 1.2.18 2.18.4 2.18.23 0 .4 1.2.4 2.8 0 1.6.17 2.8.4 2.8.24 0 .4 1.44.4 3.52 0 1.94.18 3.7.41 3.93.81.81 0 37.35-.84 37.35-.2 0-.37 1.16-.37 2.58 0 1.41-.18 2.68-.4 2.82-.22.14-.4 1.13-.4 2.2 0 1.07-.18 2.06-.4 2.2-.22.14-.4 1.04-.4 2s-.18 1.86-.4 2c-.22.14-.4 1.05-.4 2.02 0 .98-.18 1.78-.4 1.78-.22 0-.4.72-.4 1.6 0 .88-.18 1.6-.4 1.6-.22 0-.4.72-.4 1.6 0 .88-.18 1.6-.4 1.6-.22 0-.4.54-.4 1.2 0 .66-.18 1.2-.4 1.2-.22 0-.4.62-.4 1.38 0 .75-.18 1.48-.4 1.62-.22.14-.4.78-.4 1.42 0 .65-.18 1.18-.4 1.18-.22 0-.4.54-.4 1.2 0 .66-.18 1.2-.4 1.2-.22 0-.4.36-.4.8 0 .78-.14 1.17-1.14 3.1-.25.49-.46 1.25-.46 1.7 0 .44-.18.8-.4.8-.22 0-.4.44-.4.98 0 .53-.18 1.08-.4 1.22-.22.14-.4.6-.4 1.02 0 .43-.18.78-.4.78-.22 0-.4.35-.4.78 0 .42-.18.88-.4 1.02-.22.14-.4.69-.4 1.22 0 .54-.18.98-.4.98-.22 0-.4.36-.4.8 0 .44-.18.8-.4.8-.22 0-.4.36-.4.8 0 .44-.18.8-.4.8-.22 0-.4.36-.4.8 0 .44-.18.8-.4.8-.22 0-.4.36-.4.8 0 .44-.18.8-.4.8-.22 0-.4.36-.4.8 0 .44-.18.8-.4.8-.22 0-.4.36-.4.8 0 .44-.18.8-.4.8-.22 0-.4.36-.4.8 0 .44-.18.8-.4.8-.22 0-.4.36-.4.8 0 .44-.18.8-.4.8-.22 0-.4.36-.4.8 0 .44-.16.8-.35.8-.2 0-.58.54-.85 1.2-.27.66-.66 1.2-.85 1.2-.2 0-.35.36-.35.8 0 .44-.18.8-.4.8-.22 0-.4.32-.4.71 0 .4-.36.97-.8 1.29-.44.32-.8.9-.8 1.29s-.16.71-.35.71c-.2 0-.58.54-.85 1.2-.27.66-.63 1.2-.8 1.2-.17 0-.53.54-.8 1.2-.27.66-.63 1.2-.8 1.2-.17 0-.53.54-.8 1.2-.27.66-.63 1.2-.78 1.2-.16 0-.54.5-.85 1.1-.32.6-.98 1.51-1.47 2.02-.5.5-.9 1.04-.9 1.2 0 .16-.4.74-.9 1.3-.5.55-1.53 1.81-2.3 2.8l-2 2.55c-.62.8-2.89 3.38-5.12 5.83-.7.77-1.28 1.64-1.28 1.92 0 .3-.18.42-.4.28-.22-.14-.4-.05-.4.19 0 .7-3.38 3.88-4.12 3.88-.4 0-.68-.31-.68-.74 0-.4-.18-.73-.4-.73-.22 0-.4-.2-.4-.43 0-.6-1.05-1.59-1.35-1.28-.14.13-.25-.15-.25-.62 0-.48-.18-.87-.4-.87-.22 0-.4-.2-.4-.43 0-.6-1.05-1.59-1.35-1.28-.14.13-.25-.15-.25-.62 0-.48-.18-.87-.4-.87-.22 0-.4-.2-.4-.43 0-.6-1.05-1.59-1.35-1.28-.14.13-.25-.15-.25-.62 0-.48-.18-.87-.4-.87-.22 0-.4-.27-.4-.6 0-.33-.18-.6-.4-.6-.22 0-.4-.2-.4-.43 0-.23-.23-.66-.5-.95-1.14-1.2-1.9-2.25-1.9-2.63a.4.4 0 00-.4-.39c-.22 0-.4-.27-.4-.6 0-.33-.18-.6-.4-.6-.22 0-.4-.27-.4-.6 0-.33-.18-.6-.4-.6-.22 0-.4-.32-.4-.71 0-.4-.36-.97-.8-1.29-.44-.32-.8-.9-.8-1.29s-.18-.71-.4-.71c-.22 0-.4-.36-.4-.8 0-.44-.18-.8-.4-.8-.22 0-.4-.36-.4-.8 0-.44-.18-.8-.4-.8-.22 0-.4-.36-.4-.8 0-.44-.18-.8-.4-.8-.22 0-.4-.36-.4-.8 0-.44-.23-.8-.51-.8-.36 0-.46-.49-.36-1.6.1-1-.01-1.6-.29-1.6-.3 0-.44-2.05-.44-6.6 0-4.13.15-6.6.4-6.6.22 0 .4-.99.4-2.2 0-1.21.18-2.2.4-2.2.22 0 .4-.72.4-1.6 0-.88.18-1.6.4-1.6.22 0 .4-.63.4-1.4 0-.77.18-1.4.4-1.4.22 0 .4-.54.4-1.2 0-.66.18-1.2.4-1.2.22 0 .4-.45.4-1s.18-1 .4-1c.22 0 .4-.54.4-1.2 0-.66.18-1.2.4-1.2.22 0 .4-.36.4-.8 0-.44.18-.8.4-.8.22 0 .4-.35.4-.78 0-.42.18-.88.4-1.02.22-.14.4-.6.4-1.02 0-.43.18-.78.4-.78.22 0 .4-.45.4-1s.18-1 .4-1c.22 0 .4-.36.4-.8 0-.44.18-.8.4-.8.22 0 .4-.36.4-.8 0-.44.18-.8.4-.8.22 0 .4-.36.4-.8 0-.44.16-.8.35-.8.2 0 .46-.31.58-.7.3-.94 1.6-3.07 1.97-3.23.17-.08.3-.48.3-.9 0-.43.18-.77.4-.77.22 0 .4-.36.4-.8 0-.44.18-.8.4-.8.22 0 .4-.36.4-.8 0-.44.18-.8.4-.8.22 0 .4-.36.4-.8 0-.44.18-.8.4-.8.22 0 .4-.27.4-.6 0-.33.18-.6.4-.6.22 0 .4-.27.4-.6 0-.33.18-.6.4-.6.22 0 .4-.36.4-.8 0-.44.18-.8.4-.8.22 0 .4-.36.4-.8 0-.44.18-.8.4-.8.22 0 .4-.36.4-.8 0-.44.18-.8.4-.8.22 0 .4-.36.4-.8 0-.44.18-.8.4-.8.22 0 .4-.36.4-.8 0-.44.18-.8.4-.8.22 0 .4-.25.4-.57 0-.3.14-.62.3-.7.17-.07 1.09-1.75 2.04-3.73l2.1-4.3c.2-.38.36-.96.36-1.3 0-.33.18-.6.4-.6.22 0 .4-.36.4-.8 0-.44.18-.8.4-.8.22 0 .4-.36.4-.8 0-.44.18-.8.4-.8.22 0 .4-.35.4-.78 0-.42.18-.88.4-1.02.22-.14.4-.69.4-1.22 0-.54.18-.98.4-.98.22 0 .4-.36.4-.8 0-.44.18-.8.4-.8.22 0 .4-.54.4-1.2 0-.66.18-1.2.4-1.2.22 0 .4-.54.4-1.2 0-.66.18-1.2.4-1.2.22 0 .4-.54.4-1.2 0-.66.18-1.2.4-1.2.22 0 .4-.54.4-1.2 0-.66.18-1.2.4-1.2.22 0 .4-.54.4-1.2 0-.66.18-1.2.4-1.2.22 0 .4-.72.4-1.6 0-.88.18-1.6.4-1.6.22 0 .4-.72.4-1.6 0-.88.18-1.6.4-1.6.22 0 .4-.9.4-2s.18-2 .4-2c.22 0 .4-1.07.4-2.4 0-1.37.18-2.4.4-2.4.26 0 .4-1.21.36-3.08-.04-1.98.1-3.14.39-3.24.6-.2.64-23.28.05-23.28-.24 0-.4-1.47-.4-3.6s-.16-3.6-.4-3.6c-.23 0-.4-1.13-.4-2.6 0-1.47-.17-2.6-.4-2.6-.22 0-.4-.99-.4-2.2 0-1.21-.18-2.2-.4-2.2-.22 0-.4-.8-.4-1.78 0-.97-.18-1.88-.4-2.02-.22-.14-.4-.96-.4-1.82 0-.87-.18-1.58-.4-1.58-.22 0-.4-.62-.4-1.38 0-.75-.18-1.48-.4-1.62-.22-.14-.4-.87-.4-1.62 0-.76-.18-1.38-.4-1.38-.22 0-.4-.63-.4-1.4 0-.77-.18-1.4-.4-1.4-.22 0-.4-.54-.4-1.2 0-.66-.18-1.2-.4-1.2-.22 0-.4-.63-.4-1.4 0-.77-.18-1.4-.4-1.4-.22 0-.4-.54-.4-1.2 0-.66-.18-1.2-.4-1.2-.22 0-.4-.45-.4-1s-.18-1-.4-1c-.22 0-.4-.37-.4-.82 0-.45-.36-1.2-.8-1.67-.44-.47-.8-1.1-.8-1.39 0-.28-.18-.52-.4-.52-.22 0-.4-.27-.4-.6 0-.33-.18-.6-.4-.6a.4.4 0 01-.4-.4c0-.66-6.73-7.2-7.4-7.2-.33 0-.6-.13-.6-.3 0-.36-1.94-1.3-2.68-1.3-.29 0-.52-.18-.52-.4 0-.59-6.23-.5-7.3.1-1.24.7-2.33 1.93-2.07 2.35.12.2-.04.35-.35.35-.54 0-2.18 3.06-1.98 3.7.06.16-.13.3-.4.31-.27 0-.95.74-1.5 1.64-.55.9-2.3 2.87-3.9 4.39-1.6 1.52-2.9 2.95-2.9 3.16 0 .22-.17.36-.38.3-.58-.15-2.82 1.43-2.82 2 0 .27-.13.46-.3.42-.69-.18-2.1.58-2.1 1.13 0 .33-.18.48-.4.35-.22-.14-.5.02-.64.35-.12.33-.48.5-.8.38-.34-.13-.56.04-.56.43 0 .35-.13.6-.3.56-.62-.16-2.03.54-2.26 1.12-.13.34-.42.5-.64.36-.22-.14-.51.03-.64.37-.14.34-.39.53-.57.42-.18-.1-.59.07-.91.39-.32.32-.7.47-.83.33-.14-.13-.25.07-.25.45 0 .5-.21.63-.75.46-.48-.16-.84-.02-.99.36-.13.33-.48.5-.8.39-.3-.12-.67.08-.8.43-.14.36-.41.55-.61.43-.2-.12-.58.05-.85.37-.28.33-.75.6-1.05.6-.3 0-.55.2-.55.42 0 .24-.16.33-.37.2-.2-.13-.65.06-1 .4-.34.35-.63.5-.63.35 0-.16-.33 0-.73.37-.4.36-.86.54-1 .4-.15-.15-.27-.06-.27.2 0 .25-.36.46-.8.46-.44 0-.8.18-.8.4 0 .22-.36.4-.8.4-.44 0-.8.18-.8.4 0 .22-.36.4-.8.4-.44 0-.8.18-.8.4 0 .22-.36.4-.8.4-.44 0-.8.13-.8.3-.01.17-.91.74-2 1.28-1.1.54-2 1.12-2 1.3 0 .17-.36.32-.8.32-.44 0-.8.18-.8.4 0 .22-.36.4-.8.4-.44 0-.8.16-.8.35 0 .2-.31.46-.7.58-.69.22-2.9 1.47-3.3 1.87-.11.11-.7.46-1.3.77-.6.31-1.1.72-1.1.9 0 .18-.32.33-.71.33-.4 0-.97.36-1.29.8-.32.44-.86.8-1.2.8-.34 0-.88.36-1.2.8-.32.44-.77.8-1.01.8s-1.12.63-1.96 1.4a7.37 7.37 0 01-1.87 1.4c-.42 0-10.76 10.27-10.76 10.69 0 .17-.54.94-1.2 1.71a6.68 6.68 0 00-1.2 1.72c0 .17-.36.7-.8 1.17-.44.47-.8 1.1-.8 1.39 0 .28-.18.52-.4.52-.22 0-.4.36-.4.8 0 .44-.18.8-.4.8-.22 0-.4.36-.4.8 0 .44-.18.8-.4.8-.22 0-.4.36-.4.8 0 .44-.18.8-.4.8-.22 0-.4.45-.4 1s-.18 1-.4 1c-.22 0-.4.45-.4 1s-.18 1-.4 1c-.22 0-.4.53-.4 1.18 0 .64-.18 1.28-.4 1.42-.22.14-.4.86-.4 1.6 0 .74-.18 1.46-.4 1.6-.22.14-.4 1.13-.4 2.2 0 1.07-.18 2.06-.4 2.2-.22.14-.4 1.14-.4 2.22 0 1.71-.1 1.98-.8 1.98-.44 0-.8-.18-.8-.4 0-.22-.36-.4-.8-.4-.44 0-.8-.18-.8-.4 0-.22-.36-.4-.8-.4-.44 0-.8-.18-.8-.4 0-.22-.54-.4-1.2-.4-.66 0-1.2-.18-1.2-.4 0-.22-.53-.4-1.18-.4-.64 0-1.28-.18-1.42-.4-.14-.22-1.13-.4-2.2-.4-1.07 0-2.06-.18-2.2-.4-.38-.61-11.1-.52-11.78.1-.43.4-.48.4-.25 0 .38-.68-5.4-.7-6.08-.03-.27.27-1.34.43-2.45.38-1.08-.05-2.09.1-2.23.33-.14.23-1.06.42-2.03.42-.98 0-1.78.18-1.78.4 0 .22-.72.4-1.6.4-.88 0-1.6.18-1.6.4 0 .22-.54.4-1.2.4-.66 0-1.2.18-1.2.4 0 .22-.62.4-1.38.4-.75 0-1.48.18-1.62.4-.14.22-.68.4-1.2.4-.52 0-1.06.18-1.2.4-.14.22-.6.4-1.02.4-.43 0-.78.18-.78.4 0 .22-.54.4-1.2.4-.66 0-1.2.18-1.2.4 0 .22-.44.4-.98.4-.53 0-1.08.18-1.22.4-.14.22-.6.4-1.02.4-.43 0-.78.18-.78.4 0 .22-.44.4-.98.4-.53 0-1.08.18-1.22.4-.14.22-.6.4-1.02.4-.43 0-.78.18-.78.4 0 .22-.36.4-.8.4-.44 0-.8.18-.8.4 0 .22-.36.4-.8.4-.44 0-.8.18-.8.4 0 .22-.45.4-1 .4s-1 .18-1 .4c0 .22-.26.4-.59.4-.32 0-1.23.36-2.01.8-.78.44-1.7.8-2.06.8-.36 0-.54.23-.42.54.15.38-.07.48-.76.35-.55-.1-.96 0-.96.26 0 .25-.36.45-.8.45-.44 0-.8.18-.8.4 0 .22-.38.4-.84.4-.6 0-.78.18-.6.62.14.38.07.52-.2.36-.37-.23-5.43 2.01-5.96 2.64-.11.14-.78.5-1.5.81-.72.31-1.3.7-1.3.87 0 .16-.36.3-.8.3-.44 0-.8.18-.8.4 0 .22-.36.4-.8.4-.44 0-.8.18-.8.4 0 .22-.36.4-.8.4-.44 0-.8.14-.8.3 0 .17-.68.63-1.5 1-2.54 1.19-4.1 2.18-3.82 2.44.14.15-.23.26-.81.26-.59 0-1.07.18-1.07.4 0 .22-.36.4-.8.4-.44 0-.8.15-.8.32 0 .18-.63.58-1.4.88-.77.3-1.4.7-1.4.88 0 .17-.36.32-.8.32-.44 0-.8.18-.8.4 0 .22-.27.4-.6.4-.33 0-.6.18-.6.4 0 .22-.36.4-.8.4-.44 0-.8.13-.8.3 0 .17-1 .75-2.2 1.3-1.2.55-2.2 1.13-2.2 1.3 0 .16-.36.3-.8.3-.44 0-.8.18-.8.4 0 .22-.36.4-.8.4-.44 0-.8.18-.8.4 0 .22-.36.4-.8.4-.44 0-.8.18-.8.4 0 .22-.36.4-.8.4-.44 0-.8.18-.8.4 0 .22-.36.4-.8.4-.44 0-.8.18-.8.4 0 .22-.36.4-.8.4-.44 0-.8.18-.8.4 0 .22-.36.4-.8.4-.44 0-.8.18-.8.4 0 .22-.36.4-.8.4-.44 0-.8.18-.8.4 0 .22-.36.4-.8.4-.44 0-.8.18-.8.4 0 .22-.35.4-.78.4-.42 0-.88.18-1.02.4-.14.22-.69.4-1.22.4-.54 0-.98.18-.98.4 0 .22-.36.4-.8.4-.44 0-.8.18-.8.4 0 .22-.54.4-1.2.4-.66 0-1.2.18-1.2.4 0 .22-.54.4-1.2.4-.66 0-1.2.18-1.2.4 0 .22-.62.4-1.38.4-.75 0-1.48.18-1.62.4-.14.22-.96.4-1.82.4-.87 0-1.58.18-1.58.4 0 .24-1.67.4-4.2.4-2.53 0-4.2-.16-4.2-.4 0-.22-.9-.4-2-.4s-2-.18-2-.4c0-.24-1.53-.4-3.8-.4-2.27 0-3.8.16-3.8.4 0 .22-.72.4-1.6.4-.88 0-1.6.18-1.6.4 0 .22-.27.4-.6.4-.79 0-5 4.2-5 4.97 0 .32-.18.7-.4.83-.22.14-.4 1.05-.4 2.02 0 .98-.18 1.78-.4 1.78-.52 0-.52 4.28 0 4.6.22.14.4 1.14.4 2.22 0 1.1.18 1.98.4 1.98.22 0 .4.54.4 1.2 0 .66.18 1.2.4 1.2.22 0 .4.36.4.8 0 .44.18.8.4.8.22 0 .4.36.4.8 0 .44.18.8.4.8.22 0 .4.27.4.6 0 .33.18.6.4.6.22 0 .4.2.4.44s.54.94 1.2 1.56c.66.62 1.2 1.29 1.2 1.5 0 1.11 17.37 18.46 19.84 19.82.42.23 1.03.7 1.36 1.07.33.36 1.23 1.08 2 1.62.77.53 1.63 1.19 1.92 1.46.28.28 1.04.82 1.7 1.2.65.39 1.18.82 1.18.97 0 .14.54.49 1.2.76.66.27 1.2.63 1.2.8 0 .17.54.53 1.2.8.66.27 1.2.63 1.2.8 0 .17.31.4.7.53.69.22 2.9 1.47 3.3 1.87.76.76 12.97 6.8 13.75 6.8.36 0 .65.18.65.4 0 .22.24.4.53.4.28 0 1.27.36 2.18.8.9.44 1.84.8 2.08.8.41 0 .9.2 2.7 1.14.5.25 1.25.46 1.68.46.43 0 .9.18 1.03.4.14.22.68.4 1.2.4.52 0 1.06.18 1.2.4.14.22.77.4 1.4.4.63 0 1.26.17 1.38.37.13.2 1.4.5 2.82.64 1.43.16 2.6.44 2.6.64s.7.35 1.58.35c.86 0 1.68.18 1.82.4.14.22.95.4 1.8.4.85 0 1.66.18 1.8.4.14.22 1.14.4 2.22.4 1.1 0 1.98.18 1.98.4 0 .22 1.06.4 2.38.4 1.3 0 2.48.18 2.62.4.14.22 1.5.4 3.02.4 1.59 0 2.78.17 2.78.4 0 .24 1.6.4 4 .4s4 .16 4 .4c0 .25 2.2.4 5.8.4 3.6 0 5.8.15 5.8.4 0 .26 3.8.4 10.6.4s10.6.14 10.6.4c0 .25 2.53.4 6.8.4s6.8.15 6.8.4c0 .24 1.47.4 3.6.4s3.6.16 3.6.4c0 .22.9.4 2 .4s2 .18 2 .4c0 .22.7.4 1.58.4.86 0 1.68.18 1.82.4.14.22.87.4 1.62.4.76 0 1.38.18 1.38.4 0 .22.36.4.8.4.44 0 .8.18.8.4 0 .22.54.4 1.2.4.66 0 1.2.18 1.2.4 0 .22.24.4.53.4.28 0 .9.36 1.38.8.47.44 1.05.8 1.28.8.66 0 6.41 5.91 6.41 6.6 0 .33.14.6.3.6.36 0 1.3 1.94 1.3 2.68 0 .29.18.52.4.52.22 0 .4.36.4.8 0 .44.18.8.4.8.22 0 .4.54.4 1.2 0 .66.18 1.2.4 1.2.22 0 .4.62.4 1.38 0 .75.18 1.48.4 1.62.22.14.4.86.4 1.6 0 .74.18 1.46.4 1.6.22.14.4.96.4 1.82 0 .87.18 1.58.4 1.58.22 0 .4 1.07.4 2.4 0 1.33.18 2.4.4 2.4.22 0 .4 1.06.4 2.38 0 1.3.18 2.48.4 2.62.22.14.4 1.77.4 3.62 0 1.99.17 3.38.4 3.38.25 0 .4 2.8.4 7.6 0 7.26-.03 7.6-.78 7.6-.42 0-.88.18-1.02.4-.14.22-.95.4-1.8.4-.85 0-1.66.18-1.8.4-.14.22-.95.4-1.8.4-.85 0-1.66.18-1.8.4-.14.22-1.13.4-2.2.4-1.07 0-2.06.18-2.2.4-.14.22-1.32.4-2.62.4-1.32 0-2.38.18-2.38.4 0 .23-1.26.4-2.98.4-1.63 0-3.08.18-3.22.4-.14.23-2.13.4-4.6.4-2.47 0-4.46.17-4.6.4-.34.54-19.66.54-20 0-.14-.23-2.2-.4-4.82-.4-2.79 0-4.58-.16-4.58-.4 0-.23-1.24-.4-2.92-.4-1.6 0-3.12-.2-3.36-.44-.25-.25-1.4-.38-2.68-.3-1.6.1-2.24 0-2.24-.36 0-.33-.67-.5-2-.5-1.1 0-2-.18-2-.4 0-.22-.9-.4-2-.4s-2-.18-2-.4c0-.22-.72-.4-1.6-.4-.88 0-1.6-.18-1.6-.4 0-.22-.72-.4-1.6-.4-.88 0-1.6-.18-1.6-.4 0-.22-.62-.4-1.38-.4-.75 0-1.48-.18-1.62-.4-.14-.22-.78-.4-1.42-.4-.65 0-1.18-.18-1.18-.4 0-.22-.54-.4-1.2-.4-.66 0-1.2-.18-1.2-.4 0-.22-.54-.4-1.2-.4-.66 0-1.2-.18-1.2-.4 0-.22-.54-.4-1.2-.4-.66 0-1.2-.18-1.2-.4 0-.22-.54-.4-1.2-.4-.66 0-1.2-.18-1.2-.4 0-.22-.44-.4-.98-.4-.53 0-1.08-.18-1.22-.4-.14-.22-.6-.4-1.02-.4-.43 0-.78-.18-.78-.4 0-.22-.54-.4-1.2-.4-.66 0-1.2-.18-1.2-.4 0-.22-.36-.4-.8-.4-.44 0-.8-.18-.8-.4 0-.22-.35-.4-.78-.4-.42 0-.88-.18-1.02-.4-.14-.22-.69-.4-1.22-.4-.54 0-.98-.18-.98-.4 0-.22-.36-.4-.8-.4-.44 0-.8-.18-.8-.4 0-.22-.36-.4-.8-.4-.44 0-.8-.18-.8-.4 0-.22-.36-.4-.8-.4-.44 0-.8-.18-.8-.4 0-.22-.36-.4-.8-.4-.44 0-.8-.18-.8-.4 0-.22-.36-.4-.8-.4-.44 0-.8-.18-.8-.4 0-.22-.36-.4-.8-.4-.44 0-.8-.18-.8-.4 0-.22-.36-.4-.8-.4-.44 0-.8-.18-.8-.4 0-.22-.36-.4-.8-.4-.44 0-.8-.16-.8-.35 0-.2-.54-.58-1.2-.85-.66-.27-1.2-.66-1.2-.85 0-.2-.36-.35-.8-.35-.44 0-.8-.18-.8-.4 0-.22-.32-.4-.71-.4-.4 0-.97-.36-1.29-.8-.32-.44-.9-.8-1.29-.8s-.71-.16-.71-.35c0-.2-.54-.58-1.2-.85-.66-.27-1.2-.66-1.2-.85 0-.2-.32-.35-.71-.35-.4 0-.97-.36-1.29-.8-.32-.44-.83-.8-1.14-.8-.31 0-.86-.32-1.21-.7a14.86 14.86 0 00-2.15-1.7c-.82-.55-1.5-1.14-1.5-1.3 0-.17-.22-.3-.5-.3-.27 0-1.08-.54-1.78-1.2a5.96 5.96 0 00-1.6-1.2c-.17-.01-.99-.6-1.8-1.3-.82-.72-2.89-2.47-4.6-3.9-1.72-1.42-6.41-5.84-10.43-9.82-4.02-3.97-7.4-7.14-7.5-7.04-.1.1-.19-.09-.19-.43 0-.34-1.07-1.76-2.39-3.16-1.3-1.4-2.39-2.7-2.4-2.88 0-.18-.64-.99-1.4-1.8a8.38 8.38 0 01-1.4-1.73c0-.14-.55-.83-1.21-1.54a5.62 5.62 0 01-1.2-1.62c0-.2-.4-.76-.9-1.26s-1.16-1.42-1.47-2.02c-.31-.6-.7-1.1-.85-1.1-.16 0-.5-.54-.78-1.2-.27-.66-.63-1.2-.8-1.2-.17 0-.53-.54-.8-1.2-.27-.66-.65-1.2-.85-1.2-.2 0-.35-.24-.35-.52 0-.3-.36-.92-.8-1.39-.44-.47-.8-1.13-.8-1.47 0-.34-.16-.62-.35-.62-.2 0-.58-.54-.85-1.2-.27-.66-.65-1.2-.85-1.2-.2 0-.35-.36-.35-.8 0-.44-.18-.8-.4-.8-.22 0-.4-.36-.4-.8 0-.44-.16-.8-.35-.8-.2 0-.58-.54-.85-1.2-.27-.66-.66-1.2-.85-1.2-.2 0-.35-.36-.35-.8 0-.44-.18-.8-.4-.8-.22 0-.4-.36-.4-.8 0-.44-.18-.8-.4-.8-.22 0-.4-.36-.4-.8 0-.44-.18-.8-.4-.8-.22 0-.4-.36-.4-.8 0-.44-.18-.8-.4-.8-.22 0-.4-.36-.4-.8 0-.44-.15-.8-.33-.8-.18 0-.57-.9-.87-2-.3-1.1-.7-2-.87-2-.18 0-.33-.36-.33-.8 0-.44-.18-.8-.4-.8-.22 0-.4-.36-.4-.8 0-.44-.18-.8-.4-.8-.22 0-.4-.54-.4-1.2 0-.66-.18-1.2-.4-1.2-.22 0-.4-.36-.4-.8 0-.44-.18-.8-.4-.8-.22 0-.4-.54-.4-1.2 0-.66-.18-1.2-.4-1.2-.22 0-.4-.36-.4-.8 0-.45-.2-1.21-.46-1.7-.97-1.88-1.14-2.3-1.14-2.9 0-.34-.16-.92-.35-1.3a14.13 14.13 0 01-1.25-4.43c0-.48-.18-.87-.4-.87-.22 0-.4-.54-.4-1.2 0-.66-.18-1.2-.4-1.2-.22 0-.4-.72-.4-1.6 0-.88-.18-1.6-.4-1.6-.22 0-.4-.72-.4-1.6 0-.88-.18-1.6-.4-1.6-.22 0-.4-.72-.4-1.6 0-.88-.18-1.6-.4-1.6-.22 0-.4-.9-.4-2s-.18-2-.4-2c-.22 0-.4-.98-.4-2.18 0-1.2-.18-2.28-.4-2.42-.22-.14-.4-1.32-.4-2.62 0-1.32-.18-2.38-.4-2.38-.23 0-.4-1.32-.4-3.18 0-1.74-.18-3.28-.4-3.42-.24-.15-.4-2.66-.4-6.2s-.16-6.05-.4-6.2c-.53-.33-.53-9.67 0-10 .22-.14.4-2.01.4-4.25 0-3.1-.11-3.93-.5-3.7-.38.23-.37.14.02-.34.29-.35.47-1.4.42-2.35-.07-1.05.08-1.77.38-1.87.32-.1.48-1.2.48-3.32 0-1.95.16-3.17.42-3.17s.39-.94.33-2.41c-.05-1.42.11-2.61.38-2.88.26-.26.47-1.33.47-2.39s.18-1.92.4-1.92c.22 0 .4-.9.4-2s.18-2 .4-2c.22 0 .4-.72.4-1.6 0-.88.18-1.6.4-1.6.22 0 .4-.72.4-1.6 0-.88.18-1.6.4-1.6.22 0 .4-.72.4-1.6 0-.88.18-1.6.4-1.6.22 0 .4-.53.4-1.18 0-.64.18-1.28.4-1.42.22-.14.4-.87.4-1.62 0-.76.18-1.38.4-1.38.22 0 .4-.54.4-1.2 0-.66.18-1.2.4-1.2.22 0 .4-.54.4-1.2 0-.66.18-1.2.4-1.2.22 0 .4-.44.4-.98 0-.53.18-1.08.4-1.22.22-.14.4-.6.4-1.02 0-.43.18-.78.4-.78.22 0 .4-.54.4-1.2 0-.66.18-1.2.4-1.2.22 0 .4-.35.4-.78 0-.42.18-.88.4-1.02.22-.14.4-.69.4-1.22 0-.54.18-.98.4-.98.22 0 .4-.36.4-.8 0-.44.15-.8.33-.8.18 0 .57-.9.87-2 .3-1.1.7-2 .87-2 .18 0 .33-.36.33-.8 0-.44.18-.8.4-.8.22 0 .4-.36.4-.8 0-.44.18-.8.4-.8.22 0 .4-.36.4-.8 0-.44.18-.8.4-.8.22 0 .4-.36.4-.8 0-.44.18-.8.4-.8.22 0 .4-.36.4-.8 0-.44.18-.8.4-.8.22 0 .4-.36.4-.8 0-.44.18-.8.4-.8.22 0 .4-.28.4-.62 0-.34.36-1 .8-1.47.44-.47.8-1.1.8-1.38 0-.3.18-.53.4-.53.22 0 .4-.36.4-.8 0-.44.18-.8.4-.8.22 0 .4-.32.4-.71 0-.4.36-.97.8-1.29.44-.32.8-.9.8-1.29s.16-.71.35-.71c.2 0 .58-.54.85-1.2.27-.66.65-1.2.85-1.2.2 0 .35-.32.35-.71 0-.4.36-.97.8-1.29.44-.32.8-.81.8-1.1 0-.3.44-.97.97-1.5.54-.54 1.3-1.52 1.69-2.19.4-.67.85-1.21 1.03-1.21.17 0 .31-.19.31-.41 0-.47 3.64-5.27 6.64-8.75.68-.8 1.58-1.89 2-2.44 1.26-1.67 17.4-17.72 19.73-19.62 1.19-.98 2.39-2 2.67-2.28.27-.27.68-.5.9-.5.22 0 .45-.13.53-.3.14-.32 1.82-1.73 3.76-3.16l3.07-2.3a11.25 11.25 0 012.22-1.44c.17 0 .56-.36.88-.8.32-.44.86-.8 1.2-.8.34 0 .88-.36 1.2-.8.32-.44.86-.8 1.2-.8.34 0 .88-.36 1.2-.8.32-.44.81-.8 1.1-.8.3 0 .92-.36 1.4-.8.46-.44 1.09-.8 1.38-.8.28 0 .52-.18.52-.4 0-.22.28-.4.62-.4.34 0 1-.36 1.47-.8.47-.44 1.1-.8 1.39-.8.28 0 .52-.18.52-.4 0-.22.36-.4.8-.4.44 0 .8-.18.8-.4 0-.22.36-.4.8-.4.44 0 .8-.18.8-.4 0-.22.34-.4.77-.4.42 0 .82-.13.9-.3.19-.42 5.13-2.9 5.79-2.9.3 0 .54-.18.54-.4 0-.22.36-.4.8-.4.44 0 .8-.18.8-.4 0-.22.36-.4.8-.4.44 0 .8-.18.8-.4 0-.22.36-.4.8-.4.44 0 .8-.15.8-.33 0-.18.9-.57 2-.87 1.1-.3 2-.7 2-.87 0-.18.35-.33.78-.33.42 0 .88-.18 1.02-.4.14-.22.69-.4 1.22-.4.54 0 .98-.18.98-.4 0-.22.36-.4.8-.4.45 0 1.21-.2 1.7-.46 1.93-1 2.32-1.14 3.1-1.14.44 0 .8-.18.8-.4 0-.22.53-.4 1.18-.4.64 0 1.28-.18 1.42-.4.14-.22.77-.4 1.4-.4.63 0 1.26-.18 1.4-.4.14-.22.78-.4 1.42-.4.65 0 1.18-.18 1.18-.4 0-.22.62-.4 1.38-.4.75 0 1.48-.18 1.62-.4.14-.22.77-.4 1.4-.4.63 0 1.26-.18 1.4-.4.14-.22.95-.4 1.8-.4.85 0 1.66-.18 1.8-.4.14-.22.96-.4 1.82-.4.87 0 1.58-.18 1.58-.4 0-.22.89-.4 1.98-.4 1.08 0 2.08-.18 2.22-.4.14-.22 1.22-.4 2.4-.4s2.26-.18 2.4-.4c.14-.22 1.57-.4 3.19-.4 1.76 0 3-.18 3.09-.43.09-.28 1.53-.43 3.9-.4 2.06 0 3.96-.15 4.21-.37.9-.74 23.23-.72 23.99.03"/>
</svg>
