<svg viewBox="0 0 400 400" width="400" height="400">
  <defs>
    <linearGradient id="gradient-0" x1="200" x2="200" y1="0" y2="400" gradientTransform="matrix(-1 -.04 0 -1 399.86 407.43)" gradientUnits="userSpaceOnUse">
      <stop offset="0" stop-color="#8e9eab"></stop>
      <stop offset="1" stop-color="#eef2f3"></stop>
    </linearGradient>
  </defs>
  <rect width="400" height="400" fill="url(#gradient-0)"></rect>
  <path fill="#34484c" d="M 134.16 218.64 C 134.16 218.64 138.03 233.41 162.21 229.64 L 166.33 219.77 L 159.38 212.25 L 140.1 205.94 L 134.16 218.64" style=""></path>
  <path fill="#ad7029" d="M 211.26 190.96 C 211.26 196.19 208.57 197.58 201.71 200.45 L 143.29 224.92 C 138.03 224.92 133.73 220.67 133.73 215.45 L 133.73 133.97 C 133.73 128.74 136.87 127 143.29 124.48 L 201.71 100 C 207.01 100 211.26 104.26 211.26 109.47 L 211.26 190.96" style=""></path>
  <path fill="#34484c" d="M 139.03 223.94 C 139.03 223.94 160.94 230.16 162.24 229.64 C 163.5 229.09 161.4 220.2 161.4 220.2 L 153.5 211.74 L 146.12 211.38 L 144.83 213.22 L 139.03 223.94" style=""></path>
  <path fill="#f4f5f5" d="M 200.34 105.67 L 135.52 132.68 L 138.54 150 L 148.19 150.97 L 180.41 145.8 L 200.44 135.42 L 215.16 115.39 C 211.95 109.64 207.2 106.1 200.34 105.67" style=""></path>
  <path fill="#34484c" d="M 152.69 138.68 C 152.69 137.16 152.98 135.93 153.5 134.89 C 146.83 134.29 140.61 132.39 136.01 128.32 C 134.48 129.71 133.73 131.41 133.73 133.97 L 133.73 215.45 C 133.76 220.67 138.03 224.92 143.29 224.92 L 152.72 220.95 C 152.72 220.71 152.69 220.46 152.69 220.17 L 152.69 138.68" style=""></path>
  <path fill="#f79420" d="M 231.91 199 C 231.91 204.25 229.18 205.61 222.35 208.49 L 162.21 229.64 C 156.94 229.64 152.69 225.38 152.65 220.17 L 152.65 138.68 C 152.65 133.45 155.77 131.71 162.21 129.19 L 222.35 108.06 C 227.62 108.03 231.91 112.3 231.91 117.52 L 231.91 199" style=""></path>
  <path fill="#905a24" d="M 207.01 132.9 C 207.27 133.58 206.94 134.32 206.26 134.58 L 174.31 146.8 C 173.62 147.06 172.89 146.74 172.61 146.06 C 172.35 145.41 172.67 144.69 173.36 144.43 L 205.36 132.19 C 206 131.93 206.75 132.26 207.01 132.9 M 207.01 138.74 C 207.27 139.42 206.94 140.16 206.26 140.42 L 174.31 152.64 C 173.36 152.99 172.38 152.23 172.54 151.26 C 172.61 150.81 172.92 150.42 173.36 150.26 L 205.36 138 C 206 137.77 206.75 138.1 207.01 138.74 M 196.1 148.92 C 196.38 149.58 196.25 150.29 195.78 150.45 L 173.94 158.81 C 173.49 158.97 172.92 158.59 172.64 157.93 C 172.38 157.26 172.54 156.58 173.02 156.42 L 194.86 148.06 C 195.31 147.9 195.88 148.3 196.1 148.92" style=""></path>
  <path fill="#34484c" d="M 114.45 265.12 C 114.45 265.12 118.66 281.06 144.77 276.96 L 149.16 266.33 L 141.65 258.22 L 120.89 251.41 L 114.45 265.12" style=""></path>
  <path fill="#1ea0cd" d="M 197.68 235.28 C 197.68 240.93 194.75 242.42 187.37 245.51 L 124.31 271.93 C 118.63 271.93 114 267.35 114 261.67 L 114 173.81 C 114 168.13 117.35 166.27 124.31 163.55 L 187.37 137.13 C 193.06 137.13 197.68 141.71 197.68 147.35 L 197.68 235.28" style=""></path>
  <path fill="#34484c" d="M 119.71 270.83 C 119.71 270.83 143.39 277.57 144.77 276.99 C 146.12 276.41 143.87 266.8 143.87 266.8 L 135.31 257.67 L 127.35 257.32 L 125.96 259.28 L 119.71 270.83" style=""></path>
  <path fill="#f4f5f5" d="M 185.91 143.22 L 115.96 172.38 L 119.23 191.06 L 129.64 192.09 L 164.39 186.55 L 186.01 175.32 L 201.9 153.71 C 198.42 147.51 193.32 143.68 185.91 143.22" style=""></path>
  <path fill="#34484c" d="M 134.48 178.83 C 134.48 177.22 134.74 175.9 135.31 174.79 C 128.17 174.13 121.41 172.09 116.47 167.68 C 114.87 169.16 114.03 171.02 114.03 173.81 L 114.03 261.67 C 114.03 267.35 118.66 271.93 124.34 271.93 L 134.51 267.68 C 134.48 267.35 134.48 267.06 134.45 266.77 L 134.45 178.83 L 134.48 178.83 Z" style=""></path>
  <path fill="#57c6e9" d="M 219.95 243.93 C 219.95 249.59 217.03 251.06 209.61 254.16 L 144.77 276.99 C 139.06 276.96 134.45 272.38 134.45 266.74 L 134.45 178.83 C 134.45 173.19 137.78 171.32 144.77 168.61 L 209.61 145.77 C 215.32 145.77 219.95 150.35 219.95 156.03 L 219.95 243.93" style=""></path>
  <path fill="#198ba9" d="M 193.06 172.62 C 193.35 173.32 192.99 174.13 192.28 174.42 L 157.79 187.61 C 157.07 187.9 156.26 187.55 155.95 186.84 C 155.71 186.13 156.07 185.31 156.78 185.02 L 191.28 171.84 C 191.98 171.55 192.8 171.9 193.06 172.62 M 193.06 178.93 C 193.35 179.64 192.99 180.46 192.28 180.72 L 157.79 193.93 C 157.07 194.19 156.26 193.84 155.95 193.13 C 155.71 192.42 156.07 191.61 156.78 191.35 L 191.28 178.16 C 191.98 177.87 192.8 178.22 193.06 178.93 M 181.35 189.9 C 181.6 190.65 181.44 191.35 180.98 191.55 L 157.4 200.54 C 156.91 200.74 156.3 200.32 155.99 199.61 C 155.74 198.9 155.89 198.16 156.39 197.96 L 179.96 188.95 C 180.44 188.76 181.08 189.22 181.35 189.9" style=""></path>
  <path fill="#34484c" d="M 172.09 286.47 C 172.09 286.47 176.61 303.68 204.79 299.28 L 209.61 287.74 L 201.48 278.98 L 179.01 271.64 L 172.09 286.47" style=""></path>
  <path fill="#78111f" d="M 261.96 254.22 C 261.96 260.33 258.82 261.9 250.83 265.25 L 182.72 293.77 C 176.57 293.77 171.61 288.83 171.61 282.73 L 171.61 187.77 C 171.61 181.67 175.21 179.64 182.72 176.75 L 250.83 148.2 C 256.99 148.2 261.96 153.12 261.96 159.22 L 261.96 254.22" style=""></path>
  <path fill="#34484c" d="M 177.77 292.64 C 177.77 292.64 203.33 299.91 204.79 299.28 C 206.29 298.64 203.84 288.29 203.84 288.29 L 194.62 278.42 L 186.01 278.04 L 184.53 280.16 L 177.77 292.64" style=""></path>
  <path fill="#f4f5f5" d="M 249.25 154.78 L 173.65 186.29 L 177.21 206.48 L 188.46 207.58 L 226 201.58 L 249.35 189.45 L 266.5 166.1 C 262.73 159.42 257.24 155.29 249.22 154.78" style=""></path>
  <path fill="#34484c" d="M 193.71 193.25 C 193.71 191.48 194 190.06 194.62 188.86 C 186.88 188.17 179.57 185.93 174.24 181.15 C 172.48 182.77 171.61 184.79 171.61 187.77 L 171.61 282.73 C 171.61 288.86 176.61 293.8 182.75 293.8 L 193.75 289.19 C 193.71 288.86 193.71 288.54 193.71 288.23 L 193.71 193.25" style=""></path>
  <path fill="#be202e" d="M 286 263.58 C 286 269.67 282.86 271.28 274.88 274.64 L 204.79 299.28 C 198.65 299.28 193.68 294.35 193.65 288.26 L 193.65 193.25 C 193.65 187.16 197.25 185.15 204.79 182.22 L 274.88 157.58 C 281.03 157.58 286 162.52 286 168.61 L 286 263.58" style=""></path>
  <path fill="#78111f" d="M 257.02 186.55 C 257.31 187.32 256.92 188.2 256.13 188.48 L 218.87 202.74 C 218.08 203.02 217.23 202.65 216.94 201.9 C 216.63 201.13 217.03 200.25 217.75 199.96 L 255.05 185.71 C 255.84 185.38 256.71 185.77 257.02 186.55 M 257.02 193.35 C 257.31 194.13 256.92 195 256.13 195.29 L 218.87 209.54 C 218.08 209.84 217.23 209.45 216.94 208.67 C 216.63 207.9 217.03 207.02 217.75 206.73 L 255.05 192.51 C 255.84 192.19 256.71 192.58 257.02 193.35 M 244.33 205.22 C 244.65 206.01 244.46 206.76 243.89 206.99 L 218.45 216.74 C 217.92 216.93 217.26 216.49 216.97 215.71 C 216.66 214.93 216.87 214.13 217.39 213.93 L 242.84 204.19 C 243.35 204 244.04 204.45 244.33 205.22" style=""></path>
</svg>
