<svg xmlns="http://www.w3.org/2000/svg" viewBox="0 0 400 400">
  <defs>
    <linearGradient id="gradient-0" x1="200" x2="200" y1="0" y2="400" gradientTransform="matrix(-1 -.04 0 -1 399.86 407.43)" gradientUnits="userSpaceOnUse">
      <stop offset="0" stop-color="#8e9eab"/>
      <stop offset="1" stop-color="#eef2f3"/>
    </linearGradient>
  </defs>
  <rect width="400" height="400" fill="url(#gradient-0)"/>
  <path fill="#55acee" d="M109.46 294.44a9.5 9.5 0 0 1-8.19-14.24c.18-.29.41-.57.58-.92a317.11 317.11 0 0 1 20.69-24.9 49.9 49.9 0 0 1-.57-37.69c11.18-29.4 40.92-33.32 62.65-36.2l3.8-.52c-1.27-15.1-.63-29.45 7.09-40.34 18.79-26.63 43.17-27.44 59.77-19.31a49.15 49.15 0 0 1 11.99 8.3 389.69 389.69 0 0 0 15.67-19.37 9.5 9.5 0 0 1 16.31 2.02 9.44 9.44 0 0 1-1.21 9.45 378.74 378.74 0 0 1-19.54 23.75 51.73 51.73 0 0 1 2.48 36.71c-10.43 34.3-46.34 41.62-68.47 43.98.4 14.58-1.73 28.76-10.43 40.06-15.04 19.65-37.69 25.18-57.64 14.06a50.45 50.45 0 0 1-11.12-8.53 284.87 284.87 0 0 0-16.25 19.88 9.4 9.4 0 0 1-7.61 3.81Zm37-37.35a31.57 31.57 0 0 0 7.21 5.65c5.59 3.05 20 8.41 33.37-9.05 5.18-6.74 6.68-16.08 6.57-26.51-15.16 3.4-31.88 15.21-47.15 29.91Zm44.27-58.27-3.69.46c-24.27 3.23-40.69 6.63-47.32 24.15a31.51 31.51 0 0 0-1.9 15.68c15.9-14.53 34.81-27.49 54.17-30.95-.4-3.11-.8-6.23-1.26-9.34Zm18.67-3.63.11.98 1.39 10.09c18.9-2.02 44.9-7.44 51.93-30.61a32.14 32.14 0 0 0 .92-15.85c-16.2 15.56-34.52 29.11-53.43 35.1l-.92.29Zm26.74-60.46c-8.99 0-17.81 5.42-25.13 15.85-4.03 5.71-4.61 14.93-3.86 25.42 16.37-6 32.68-18.85 47.15-33.43a30.4 30.4 0 0 0-7.38-5.25 24.15 24.15 0 0 0-10.78-2.59Z"/>
  <path fill="#269" d="M145.02 270.69a37.5 37.5 0 0 1 8.88-7.84l-.23-.11a31.22 31.22 0 0 1-7.21-5.65s-9.11 8.7-13.14 13.6a49.42 49.42 0 0 0 7.44 6.17 63.51 63.51 0 0 1 4.26-6.17Zm43.52-42.07c1.72-.58 3.4-1.1 5.07-1.44 0 0-.46-8.65-1.62-19.02-1.96.34-3.97.86-5.93 1.38.46 2.88 1.15 6.86 2.19 12.51.46 2.42.46 4.55.29 6.57Zm56.94-77.69a29.16 29.16 0 0 1 12.79 13.94c1.85-1.67 3.69-3.34 5.48-5.07 0 0-1.73-9.45-9.45-17.23a239.08 239.08 0 0 1-8.82 8.36Zm-35.97 45.24-.11-.98c-10.49 2.71-18.67 3.63-18.67 3.63l.8 5.71a289.78 289.78 0 0 1 18.73-2.83c-.23-1.84-.46-3.69-.75-5.53Zm5.31 9.62c-1.33.18-2.65.29-3.92.47a481.6 481.6 0 0 1 1.61 18.84c1.5-.11 3.06-.34 4.73-.52a216.53 216.53 0 0 0-2.42-18.79Z"/>
  <path fill="#BBDDF5" d="M104.33 285.16a2.9 2.9 0 0 1-2.48-4.32c.4-.7 1.04-1.16 1.85-1.33 7.14-1.73 16.02-.11 16.42-.06a2.9 2.9 0 0 1 1.85 4.67 2.85 2.85 0 0 1-2.94.98c-.06 0-8.07-1.44-14.01 0-.23.06-.46.06-.69.06Zm9.91-12.74c-2.19 0-3.63-2.42-2.48-4.32a2.7 2.7 0 0 1 1.85-1.38c7.15-1.73 16.02-.12 16.42-.06a2.9 2.9 0 0 1 1.85 4.67 3 3 0 0 1-2.94 1.03c-.06-.05-8.07-1.44-14.01-.05-.23.05-.46.11-.69.11Zm26.69-12.79c-.29 0-.52 0-.75-.06-.06 0-7.9-2.02-14.01-1.04a2.86 2.86 0 1 1-.92-5.65c7.26-1.21 16.02.98 16.37 1.1 2.13.52 2.94 3.23 1.38 4.78a2.7 2.7 0 0 1-2.07.87Zm12.97-10.67c-.41 0-.75-.05-1.1-.23-.11 0-7.61-3.4-13.72-2.99a2.83 2.83 0 0 1-2.94-2.83 2.9 2.9 0 0 1 2.83-2.94c7.38 0 15.68 3.29 16.02 3.46a2.87 2.87 0 0 1 .69 4.96c-.52.4-1.15.57-1.78.57Zm12.79-10.08c-.52 0-1.04-.12-1.5-.41-.11-.05-6.97-4.32-13.08-5.18a2.88 2.88 0 1 1 .86-5.71c7.27 1.04 14.93 5.76 15.28 6a2.92 2.92 0 0 1-.23 5.01c-.41.17-.87.29-1.33.29Zm14.41-7.9c-.63 0-1.33-.23-1.84-.69-.06-.06-6.29-5.25-12.17-6.92a2.88 2.88 0 0 1 1.56-5.53c7.09 2.02 14.06 7.78 14.35 8.07a2.89 2.89 0 0 1-.86 4.9c-.35.11-.69.17-1.04.17Zm50.2-9.62c-.86 0-1.67-.41-2.19-1.04-.06-.06-5.3-6.28-10.83-8.99a2.87 2.87 0 0 1-.29-4.96c.8-.58 1.9-.63 2.82-.17 6.63 3.23 12.45 10.14 12.68 10.43 1.44 1.67.46 4.27-1.73 4.67-.11.06-.29.06-.46.06Zm17.18-6.17c-.64 0-1.27-.23-1.79-.63-.06-.06-6.46-5.02-12.39-6.58a2.8 2.8 0 0 1-2.08-3.45 2.88 2.88 0 0 1 3.52-2.08c7.15 1.79 14.23 7.38 14.52 7.61a2.85 2.85 0 0 1-1.78 5.13Zm16.94-11.99c-.34 0-.63-.06-.92-.11-.06-.06-7.78-2.54-13.89-1.96a3.02 3.02 0 0 1-3.17-2.6 3 3 0 0 1 2.59-3.17c7.32-.69 15.91 2.14 16.26 2.25 2.13.69 2.7 3.4 1.03 4.9-.52.46-1.21.69-1.9.69Zm-4.32-12.85a2.9 2.9 0 0 1-2.54-4.32c.35-.52.75-.93 1.33-1.16 6.68-3.11 15.68-3.28 16.08-3.34 1.44.12 2.88 1.27 2.94 2.88a2.88 2.88 0 0 1-2.83 2.88c-.11 0-8.18.23-13.77 2.77-.4.17-.81.29-1.21.29Zm5.88-15.45a2.9 2.9 0 0 1-2.54-4.32l.35-.46c4.84-5.53 13.02-9.4 13.37-9.57a2.9 2.9 0 0 1 2.42 5.25c-.06.05-7.44 3.51-11.47 8.12-.52.64-1.33.98-2.13.98Zm-.29-16.48a2.9 2.9 0 0 1-2.77-3.75c2.19-7.03 8.13-13.83 8.42-14.12 1.44-1.67 4.15-1.09 4.9.98.28.98.11 2.08-.58 2.82-.06.06-5.42 6.23-7.2 12.05a2.92 2.92 0 0 1-2.77 2.02Zm-7.38-13.2a2.85 2.85 0 0 1-2.82-2.42c-1.27-7.26.92-16.02 1.04-16.43a2.86 2.86 0 0 1 4.78-1.32c.75.75 1.04 1.78.81 2.76 0 .12-2.02 7.96-.98 14.01a2.9 2.9 0 0 1-2.83 3.4Zm-13.08-9.45a2.8 2.8 0 0 1-2.19-.98c-4.79-5.65-7.38-14.3-7.49-14.64a2.9 2.9 0 0 1 3.51-3.58c.98.23 1.73.98 2.02 1.96 0 .06 2.36 7.84 6.34 12.51a2.9 2.9 0 0 1-1.67 4.73h-.52Zm-17.81-.75c-.17 0-.35 0-.52-.06-7.26-1.27-14.75-6.22-15.1-6.45a2.88 2.88 0 0 1 .52-4.96c.86-.41 1.9-.35 2.71.17.05.06 6.86 4.5 12.85 5.59 2.19.41 3.17 3 1.73 4.67a2.97 2.97 0 0 1-2.19 1.04Zm-25.48 12.04c-1.9 0-3.74-.05-5.64-.28a2.86 2.86 0 0 1-1.96-4.56 2.82 2.82 0 0 1 2.65-1.15c.05 0 8.12.92 14-.86a2.9 2.9 0 0 1 3.63 1.9 2.9 2.9 0 0 1-1.96 3.63c-3.51 1.04-7.55 1.32-10.72 1.32Zm-11.87 22.6a2.89 2.89 0 0 1-2.48-4.33 2.9 2.9 0 0 1 1.56-1.26c.06 0 7.72-2.71 12.22-6.92a2.9 2.9 0 0 1 4.78 1.5c.23.98-.11 2.02-.86 2.71-5.42 5.07-13.89 8.07-14.24 8.18-.34.12-.63.12-.98.12Zm4.9 49.28a2.89 2.89 0 0 1-2.48-4.38c.29-.41.64-.75 1.04-1.04.11 0 7.15-3.98 10.89-8.88a2.87 2.87 0 0 1 4.96.64c.4.92.23 2.01-.4 2.82-4.44 5.88-12.28 10.32-12.63 10.49-.4.23-.92.35-1.38.35Zm.69 19.19a2.88 2.88 0 0 1-2.53-4.32c.28-.47.63-.81 1.09-1.1.12 0 7.15-3.98 10.89-8.88a2.85 2.85 0 0 1 4.9.75c.35.93.23 1.91-.34 2.71-4.44 5.88-12.28 10.32-12.63 10.49-.4.23-.92.35-1.38.35Zm-4.09 16.94a2.9 2.9 0 0 1-2.48-4.32 2.94 2.94 0 0 1 2.02-1.38c.06 0 8.07-1.44 13.14-4.9a2.87 2.87 0 0 1 3.98.81 2.8 2.8 0 0 1-.75 3.97c-6.17 4.15-15.05 5.71-15.39 5.77-.17.05-.35.05-.52.05Zm.98 14.76a50.26 50.26 0 0 1-13.31-2.08 2.84 2.84 0 0 1-1.85-3.63 2.88 2.88 0 0 1 3.57-1.9c.06.06 7.84 2.42 13.95 1.73a2.93 2.93 0 0 1 2.77 4.21 2.91 2.91 0 0 1-2.13 1.5c-.98.11-2.02.17-3 .17Zm-13.6 11.81c-.41 0-.87-.11-1.27-.28-6.63-3.23-12.45-10.15-12.68-10.44a2.85 2.85 0 0 1 1.56-4.72 2.9 2.9 0 0 1 2.88 1.03c.06.06 5.3 6.23 10.78 8.94a2.9 2.9 0 0 1 .34 5.01c-.46.29-1.04.46-1.61.46Zm-19.89 2.14c-.92 0-1.78-.41-2.3-1.16-4.5-5.88-6.57-14.64-6.69-14.98a2.88 2.88 0 0 1 3.81-3.23 2.7 2.7 0 0 1 1.78 1.9c.06.06 1.96 7.96 5.65 12.8a2.87 2.87 0 0 1-1.9 4.61c-.12.06-.23.06-.35.06Zm-37.46-37.53a2.9 2.9 0 0 1-2.48-4.32c.06-.11.06-.17.12-.23 4.2-6.05 11.87-10.78 12.16-11.01a2.88 2.88 0 0 1 4.38 2.37 2.77 2.77 0 0 1-1.33 2.53c-.11.06-6.97 4.32-10.49 9.4a2.76 2.76 0 0 1-2.36 1.26Zm1.84-22.82a2.88 2.88 0 0 1-2.53-4.32 3.1 3.1 0 0 1 1.09-1.04c6.46-3.63 15.39-4.55 15.8-4.61a2.9 2.9 0 0 1 .57 5.76c-.11 0-8.18.81-13.54 3.87-.41.23-.92.34-1.39.34Zm28.42-17.87c-.35 0-.69-.11-1.04-.23-.06 0-7.61-2.88-13.77-2.53a2.95 2.95 0 0 1-3.06-2.77 2.89 2.89 0 0 1 2.77-3c7.38-.34 15.79 2.77 16.14 2.94a2.86 2.86 0 0 1 .8 4.9c-.52.46-1.15.69-1.84.69Zm19.71-5.13c-.86 0-1.67-.4-2.19-1.03-.06-.06-5.3-6.29-10.84-8.99a2.89 2.89 0 0 1-.11-4.96 2.81 2.81 0 0 1 2.71-.17c6.57 3.22 12.39 10.14 12.62 10.43a2.86 2.86 0 0 1-1.73 4.67c-.11.05-.29.05-.46.05Zm24.03-3.4c-.86 0-1.67-.4-2.19-1.03-.05-.06-5.3-6.29-10.77-8.99a2.85 2.85 0 0 1-.12-4.96 2.7 2.7 0 0 1 2.65-.17c6.57 3.22 12.39 10.14 12.68 10.43a2.88 2.88 0 0 1-1.73 4.67c-.17.05-.34.05-.52.05Zm22.94-7.03a2.35 2.35 0 0 1-1.78-.63c-.12-.06-6.4-5.19-12.28-6.8a2.9 2.9 0 0 1-1.27-4.84c.75-.75 1.79-.98 2.77-.75 7.15 2.01 14.12 7.72 14.41 7.95a2.85 2.85 0 0 1-1.85 5.07Zm19.14-11.18c-.52 0-.98-.11-1.39-.34-.05-.06-7.2-3.87-13.31-4.33a2.83 2.83 0 0 1-2.65-3.11 2.92 2.92 0 0 1 3.05-2.65c7.38.58 15.34 4.84 15.68 5.01a2.92 2.92 0 0 1 .12 5.02c-.46.29-.98.4-1.5.4Zm15.04-12.33a2.5 2.5 0 0 1-.92-.18c-.06 0-7.84-2.59-13.89-2.07a2.93 2.93 0 0 1-3.11-2.65 2.88 2.88 0 0 1 2.65-3.11c7.32-.64 15.85 2.24 16.25 2.42 2.08.69 2.65 3.4.98 4.84a2.7 2.7 0 0 1-1.96.75Zm32.74-33.78c-.23 0-.46-.06-.75-.11-.06 0-7.9-2.02-14.01-.98a2.85 2.85 0 0 1-3.11-3.86 2.86 2.86 0 0 1 2.19-1.85c7.26-1.21 16.02 1.04 16.37 1.1a2.9 2.9 0 0 1-.69 5.7Zm-4.79-13.77a2.9 2.9 0 0 1-2.53-4.33 3.12 3.12 0 0 1 1.73-1.38c7.14-1.96 16.02-.69 16.42-.63a2.87 2.87 0 0 1 1.85 4.61 2.95 2.95 0 0 1-2.65 1.09c-.12 0-8.13-1.15-14.07.52-.23.06-.52.12-.75.12Z"/>
</svg>
